<svg xmlns="http://www.w3.org/2000/svg" width="692.694" height="610.122" viewBox="0 0 692.694 610.122">
  <g id="Biodata" transform="translate(0 0)">
    <path id="Path_79" data-name="Path 79" d="M753.095,276.048C720.153,146.511,606.327,53,472.718,49.253,402.084,47.27,327.757,70.7,273.642,152.673,176.9,299.217,279.586,400.482,351.174,448.6a447.938,447.938,0,0,1,92.587,83.218C492.116,589.2,585.14,660.5,695.927,548.781,776.225,467.8,775.038,362.333,753.095,276.048Z" transform="translate(-166.225 -49.139)" fill="#f2f2f2"/>
    <ellipse id="Ellipse_13" data-name="Ellipse 13" cx="346.261" cy="17.503" rx="346.261" ry="17.503" transform="translate(0 538.587)" fill="#3f3d56"/>
    <ellipse id="Ellipse_14" data-name="Ellipse 14" cx="135.493" cy="6.849" rx="135.493" ry="6.849" transform="translate(421.708 578.16)" fill="#3f3d56"/>
    <ellipse id="Ellipse_15" data-name="Ellipse 15" cx="135.493" cy="6.849" rx="135.493" ry="6.849" transform="translate(165.911 596.424)" fill="#3f3d56"/>
    <path id="Path_80" data-name="Path 80" d="M824.44,399.3s23.018-.336,18.114,6.586-23.93,6.438-23.93,6.438Z" transform="translate(-305.901 -132.822)" fill="#ffb9b9"/>
    <path id="Path_81" data-name="Path 81" d="M723.507,287.149,746.8,318.775l20.14,24.061s20.867,21.767,23.194,24.778,9.165,2.15,7.709,6.737-3.627,12.23-5.9,13.025-12.947-.572-13.73-2.083-50.666-29.7-68.467-49.994l-16.942-11.5-.254-19.455Z" transform="translate(-275.772 -106.02)" fill="#1ca680"/>
    <path id="Path_82" data-name="Path 82" d="M723.507,287.149,746.8,318.775l20.14,24.061s20.867,21.767,23.194,24.778,9.165,2.15,7.709,6.737-3.627,12.23-5.9,13.025-12.947-.572-13.73-2.083-50.666-29.7-68.467-49.994l-16.942-11.5-.254-19.455Z" transform="translate(-275.772 -106.02)" fill="#ff6584"/>
    <path id="Path_83" data-name="Path 83" d="M723.507,287.149,746.8,318.775l20.14,24.061s20.867,21.767,23.194,24.778,9.165,2.15,7.709,6.737-3.627,12.23-5.9,13.025-12.947-.572-13.73-2.083-50.666-29.7-68.467-49.994l-16.942-11.5-.254-19.455Z" transform="translate(-275.772 -106.02)" opacity="0.1"/>
    <path id="Path_84" data-name="Path 84" d="M730.831,251.61l4.843,11.415h4.289l-6.088-28.919c0-18.562-8.959-34.246-27.521-34.246h0a23.467,23.467,0,0,0-23.467,23.467V251.69a11.336,11.336,0,0,0,11.336,11.336H727.5Z" transform="translate(-273.462 -85.159)" fill="#2f2e41"/>
    <path id="Path_85" data-name="Path 85" d="M625.18,651.361s-6.849,9.132-6.849,11.415-3.805,3.044-6.088,5.327-4.566,1.522-3.044,3.805-19.025,15.981-19.025,15.981l-19.786,25.875,5.327,4.566,15.22-15.981-2.283,28.158,21.308,19.786s9.132,1.522,9.893,0-7.61-16.742-7.61-16.742.761-13.7,5.327-19.025a77.635,77.635,0,0,0,7.61-10.654s-2.283-3.044,3.044-3.805,1.522-5.327,1.522-5.327,1.522-.761,6.088-.761,25.113-22.069,25.113-22.069Z" transform="translate(-246.576 -193.061)" fill="#2f2e41"/>
    <path id="Path_86" data-name="Path 86" d="M752.444,680.927s-3.044,10.654,2.283,16.742,0,4.566,0,4.566.761,4.566-2.283,6.849-3.044,6.849-3.044,6.849-3.805,7.61-3.044,12.176.761,27.4.761,27.4h7.61V735.72l15.22,19.786H808a6.075,6.075,0,0,0-4.566-4.566c-3.805-.761-15.22,0-17.5-15.981,0,0-.761-9.132-2.283-10.654s-3.044-6.849-1.522-10.654,0-5.327,2.283-6.849,3.044-6.088,1.522-8.371-6.088-6.088-.761-8.371,5.327-13.7,5.327-13.7Z" transform="translate(-288.606 -199.036)" fill="#2f2e41"/>
    <path id="Path_87" data-name="Path 87" d="M676.632,434s-8.371,6.849,2.283,35.007,15.22,64.686,15.22,64.686-10.654,9.132-10.654,13.7-47.183,33.485-44.139,46.422,58.6,37.29,63.925,35.768S734.469,555,734.469,555s-9.893-80.667-10.654-81.428-23.591-38.051-23.591-38.051l-13.7-28.158Z" transform="translate(-263.021 -134.749)" fill="#2f2e41"/>
    <path id="Path_88" data-name="Path 88" d="M676.632,434s-8.371,6.849,2.283,35.007,15.22,64.686,15.22,64.686-10.654,9.132-10.654,13.7-47.183,33.485-44.139,46.422,58.6,37.29,63.925,35.768S734.469,555,734.469,555s-9.893-80.667-10.654-81.428-23.591-38.051-23.591-38.051l-13.7-28.158Z" transform="translate(-263.021 -134.749)" opacity="0.1"/>
    <path id="Path_89" data-name="Path 89" d="M686.987,413.386s-6.088,22.069,8.371,44.9,31.2,70.013,31.2,70.013,15.981,49.466,9.132,85.234c0,0-2.283,4.566,3.805,4.566s70.013-1.522,64.686-17.5-28.918-90.561-28.918-90.561l-30.441-75.34-1.522-22.83-11.415-17.5H708.3Z" transform="translate(-274.137 -131.642)" fill="#2f2e41"/>
    <path id="Path_90" data-name="Path 90" d="M541.615,449.361s-23.02,0-18.016,6.849S547.62,462.3,547.62,462.3Z" transform="translate(-235.224 -144.786)" fill="#ffb9b9"/>
    <path id="Path_91" data-name="Path 91" d="M704.471,242.861s1.522,10.654-3.805,12.176,21.308,12.937,21.308,12.937,5.327-18.264,7.61-20.547S704.471,242.861,704.471,242.861Z" transform="translate(-277.542 -95.436)" fill="#ffb9b9"/>
    <path id="Path_92" data-name="Path 92" d="M704.471,242.861s1.522,10.654-3.805,12.176,21.308,12.937,21.308,12.937,5.327-18.264,7.61-20.547S704.471,242.861,704.471,242.861Z" transform="translate(-277.542 -95.436)" opacity="0.1"/>
    <path id="Path_93" data-name="Path 93" d="M710.451,262.821s-23.591-6.849-24.352-9.132-6.088,3.044-8.371,6.849-6.849,8.371-9.132,8.371-19.025,9.893-22.83,27.4c-1.742,8.013-4.281,12.676-6.523,15.378a14.682,14.682,0,0,0-2.955,7.611.741.741,0,0,1-.416.6c-1.522.761,31.963,32.724,31.963,32.724s12.937-3.044,15.22,0-1.522,8.371-3.805,11.415-7.61,18.264-4.566,20.547,19.025-20.547,28.158-15.981,18.264.761,18.264.761,3.805,12.176,9.893,12.176,7.61-9.893,5.327-12.937-11.415-9.132-6.849-17.5,6.088-23.591,6.088-23.591,12.176-14.459-9.893-31.963c0,0-7.61-21.308-9.893-22.83s-6.088-2.283-6.088-3.805S710.451,262.821,710.451,262.821Z" transform="translate(-262.214 -97.892)" fill="#ff6584"/>
    <path id="Path_94" data-name="Path 94" d="M615.876,335.861l-22.83,31.963-19.786,24.352s-20.547,22.069-22.83,25.113-9.132,2.283-7.61,6.849,3.805,12.176,6.088,12.937,12.937-.761,13.7-2.283,50.227-30.441,67.73-50.988l16.772-11.745-.03-19.457Z" transform="translate(-239.935 -117.661)" fill="#ff6584"/>
    <path id="Path_95" data-name="Path 95" d="M698.86,384.939l44.113,1.408a1.915,1.915,0,0,1,1.858,1.915v.7a1.915,1.915,0,0,1-2,1.914l-44.113-2.112a1.916,1.916,0,0,1-1.83-1.914h0a1.916,1.916,0,0,1,1.973-1.915Z" transform="translate(-276.807 -129.39)" fill="#2f2e41"/>
    <ellipse id="Ellipse_16" data-name="Ellipse 16" cx="0.761" cy="4.186" rx="0.761" ry="4.186" transform="translate(466.502 255.49)" fill="#2f2e41"/>
    <circle id="Ellipse_17" data-name="Ellipse 17" cx="21.308" cy="21.308" r="21.308" transform="translate(420.841 116.985)" fill="#ffb9b9"/>
    <path id="Path_96" data-name="Path 96" d="M721.41,200.879c-4.129-1.047-13.918-1.018-15.351-1.018a26.279,26.279,0,0,0-26.279,26.279l-9.893,36.885h19.257l3.574-13.7,5.073,13.7h9.694l.833-8.232,3.281,8.232h10.8c-8.087-18.3-12.389-34.977-1.764-45.271,7.174.977,13.225-.944,14.211-4.834C735.98,208.439,729.966,203.048,721.41,200.879Z" transform="translate(-270.355 -85.159)" fill="#2f2e41"/>
    <path id="Path_97" data-name="Path 97" d="M736.683,277.722" transform="translate(-286.318 -103.767)" fill="#2f2e41"/>
    <path id="Path_98" data-name="Path 98" d="M174.425,343.52a10.663,10.663,0,0,1-9.284-15.981c13.546-22.83,54.717-76.177,144.669-76.177,38.964,0,73.133,10.35,101.519,30.745,23.363,16.742,36.453,35.692,42.693,44.824a10.576,10.576,0,0,1-2.816,14.764,10.825,10.825,0,0,1-14.916-2.816c-11.339-16.438-45.737-66.36-126.481-66.36-78.841,0-114.457,45.965-126.1,65.676a10.5,10.5,0,0,1-9.284,5.327Z" transform="translate(-149.388 -97.467)" fill="#1ca680"/>
    <path id="Path_99" data-name="Path 99" d="M358.855,564.793a10.6,10.6,0,0,1-2.664-.3c-65.219-16.362-89.571-82.266-90.561-85.005l-.152-.609c-.533-1.9-13.622-47.107,6.469-73.59,9.208-12.1,23.211-18.264,41.7-18.264,17.2,0,29.6,5.4,38.127,16.59,7,9.132,9.817,20.4,12.557,31.278,5.708,22.6,9.817,34.474,33.561,35.692,10.426.533,17.275-5.632,21.156-10.883,10.5-14.307,12.328-37.67,4.414-58.218-10.2-26.635-46.27-76.786-109.89-76.786-27.168,0-52.129,8.828-72.144,25.418-16.59,13.774-29.756,33.18-36.072,53.119-11.72,37.137,3.653,95.507,3.805,96.04a10.556,10.556,0,0,1-7.61,12.937,10.808,10.808,0,0,1-13.166-7.534c-.685-2.663-17.123-64.914-3.577-107.836,14.764-46.5,60.272-93.376,128.764-93.376,31.658,0,61.566,10.882,86.527,31.43,19.33,15.981,35.159,37.442,43.378,58.9,10.5,27.4,7.686,58.141-7.154,78.232-9.893,13.394-23.972,20.4-39.573,19.634-40.638-2.055-47.944-30.745-53.271-51.673-5.479-21.461-8.98-31.81-29.908-31.81-11.491,0-19.558,3.2-24.581,9.817-6.849,9.056-7.382,23.211-6.621,33.485q.011.161.023.321a86.7,86.7,0,0,0,11.575,37.063c10.564,18.216,31.994,46.152,67.547,55.079a10.571,10.571,0,0,1,7.762,12.861,10.8,10.8,0,0,1-10.426,7.991Z" transform="translate(-153.153 -109.918)" fill="#1ca680"/>
    <path id="Path_100" data-name="Path 100" d="M287.871,572.732a10.835,10.835,0,0,1-7.838-3.348c-26.1-27.7-40.866-58.674-46.422-97.41v-.228c-3.12-25.646,1.446-61.947,23.82-86.908,16.514-18.417,39.725-27.777,68.872-27.777,34.474,0,61.566,16.21,78.461,46.8a131.555,131.555,0,0,1,14.764,45.28,10.75,10.75,0,1,1-21.385,2.207,110.16,110.16,0,0,0-12.556-37.823c-13.089-23.363-33.028-35.235-59.359-35.235-22.754,0-40.562,6.925-52.814,20.623-17.656,19.71-21.08,50.075-18.645,70.166,4.87,34.246,17.884,61.49,40.866,85.842a10.526,10.526,0,0,1-.533,14.992A10.8,10.8,0,0,1,287.871,572.732Z" transform="translate(-165.881 -122.728)" fill="#1ca680"/>
    <circle id="Ellipse_18" data-name="Ellipse 18" cx="13.698" cy="13.698" r="13.698" transform="translate(146.876 323.22)" fill="#1ca680"/>
  </g>
</svg>
