<svg xmlns="http://www.w3.org/2000/svg" xmlns:xlink="http://www.w3.org/1999/xlink" width="680.325" height="469.647" viewBox="0 0 680.325 469.647">
  <defs>
    <linearGradient id="linear-gradient" y1="0.5" x2="1" y2="0.5" gradientUnits="objectBoundingBox">
      <stop offset="0" stop-color="gray" stop-opacity="0.251"/>
      <stop offset="0.54" stop-color="gray" stop-opacity="0.122"/>
      <stop offset="1" stop-color="gray" stop-opacity="0.102"/>
    </linearGradient>
  </defs>
  <g id="Disclaimer" transform="translate(0 0.006)">
    <path id="Path_6" data-name="Path 6" d="M401.72,111.4c-43.608.058-85.582-12.3-125.73-26.036S196,56.255,153.206,49.739c-27.524-4.189-58.822-3.8-80.338,11.405-20.71,14.631-26.707,38.847-29.6,61.22-2.176,16.831-3.179,34.5,4.97,49.891,5.659,10.688,15.343,19.5,22.169,29.682,23.825,35.435,9.5,80.7-13.657,116.956C45.892,335.9,33.175,352.21,24.967,370.2s-11.574,38.381-3.2,56.133c8.3,17.595,27.034,30.365,47.143,39.087,40.837,17.746,88.382,21.55,134.65,23.014,102.418,3.25,205.035-3.378,307.378-10,37.873-2.45,75.916-4.918,113.007-12.018,20.593-3.938,41.8-9.783,56.4-22.594,18.534-16.265,22.326-42.82,8.838-61.909-22.618-32.016-82.257-38.054-98.475-72.7-8.943-19.071-1.231-40.942,10.128-59.324,24.362-39.442,66.3-74.772,67-118.887.484-30.3-21.323-59.849-53.893-73.016-34.14-13.791-80.688-10.244-104.606,15.46C484.741,99.921,440.224,111.361,401.72,111.4Z" transform="translate(-16.91 -47.46)" fill="#1ca680" opacity="0.1"/>
    <path id="Path_7" data-name="Path 7" d="M999.245,690.982s-7.17-4.731-14.275-1.365c0,0,2.188,4.212,11.183,3.815Z" transform="translate(-420.222 -314.493)" fill="#1ca680"/>
    <path id="Path_8" data-name="Path 8" d="M1007.606,693.25s2.182,8.307-3.29,13.96c0,0-3.29-3.424,0-11.813Z" transform="translate(-427.672 -316.51)" fill="#1ca680"/>
    <path id="Path_9" data-name="Path 9" d="M1014.506,675.869s-.531-7.065-16.486-4.72c0,0-.076,4.556,5.525,6.715S1011.712,678.2,1014.506,675.869Z" transform="translate(-425.658 -307.104)" fill="#1ca680"/>
    <path id="Path_10" data-name="Path 10" d="M1024.659,679.5s6.744,2.164.729,17.128c0,0-4.451-.992-5.25-6.948S1021.707,681.67,1024.659,679.5Z" transform="translate(-434.808 -310.782)" fill="#1ca680"/>
    <path id="Path_11" data-name="Path 11" d="M1032.432,654.806s.916-11.627-15.39-10.437c0,0-1.167,10.5,12.513,13.231Z" transform="translate(-433.573 -296.11)" fill="#1ca680"/>
    <path id="Path_12" data-name="Path 12" d="M1048.674,632.691s-2.234-13.179-18.534-9.252c0,0-.059,11.393,15.874,12.391Z" transform="translate(-439.04 -287.121)" fill="#1ca680"/>
    <path id="Path_13" data-name="Path 13" d="M1061.2,609.624s-3.745-12.835-19.893-9c0,0,3.844,11.545,18.82,11.364Z" transform="translate(-443.694 -277.624)" fill="#1ca680"/>
    <path id="Path_14" data-name="Path 14" d="M1074.482,586.643s-3.658-13.319-19.251-9.334c0,0,5.2,12.654,18.219,11.586Z" transform="translate(-449.493 -267.897)" fill="#1ca680"/>
    <path id="Path_15" data-name="Path 15" d="M1084.1,562.831s-2.812-16.288-17.35-12.683c0,0,4.224,14.818,16.282,15.057Z" transform="translate(-454.292 -256.674)" fill="#1ca680"/>
    <path id="Path_16" data-name="Path 16" d="M1091.325,537.242s-3.378-16.416-18.085-11.668c0,0,5.764,15.518,17.041,13.914Z" transform="translate(-456.996 -246.294)" fill="#1ca680"/>
    <path id="Path_17" data-name="Path 17" d="M1097.051,510.513s-5.361-16.422-16.731-15.979c0,0,5.478,17.344,15.781,19.252Z" transform="translate(-459.946 -233.718)" fill="#1ca680"/>
    <path id="Path_18" data-name="Path 18" d="M1101.306,485.163s-5.834-19.765-15.086-18.242c0,0,4.037,15.11,14.76,21.323Z" transform="translate(-462.404 -222.182)" fill="#1ca680"/>
    <path id="Path_19" data-name="Path 19" d="M1103.4,457.768s-5.472-16.469-14.584-17.128c0,0,3.722,16.206,14.4,21.41Z" transform="translate(-463.487 -211.268)" fill="#1ca680"/>
    <path id="Path_20" data-name="Path 20" d="M1106.545,431.6s-6.82-16.486-12.835-16.86c0,0,2.964,16.236,12.251,19.567Z" transform="translate(-465.524 -200.478)" fill="#1ca680"/>
    <path id="Path_21" data-name="Path 21" d="M1109.7,405.272s-4.195-17.9-10.221-19.391c0,0,.823,14.649,9.614,20.733Z" transform="translate(-467.928 -188.454)" fill="#1ca680"/>
    <path id="Path_22" data-name="Path 22" d="M1114.263,375.251s-4.411-14.275-9.293-16.451c0,0,.963,16.831,8.167,19.94Z" transform="translate(-470.216 -177.172)" fill="#1ca680"/>
    <path id="Path_23" data-name="Path 23" d="M1121.508,348.027l.887-25.167s-9.13,18.972-1.546,29.583Z" transform="translate(-475.576 -162.199)" fill="#1ca680"/>
    <path id="Path_24" data-name="Path 24" d="M1133.673,309.233s6.575-18.377,8.167-19.4c0,0-12.893,11.924-11.633,27.261Z" transform="translate(-480.694 -148.438)" fill="#1ca680"/>
    <path id="Path_25" data-name="Path 25" d="M1042.313,662.144s11.563-1.511,11.219,14.83c0,0-10.448,1.7-13.861-11.814Z" transform="translate(-443.01 -303.536)" fill="#1ca680"/>
    <path id="Path_26" data-name="Path 26" d="M1060.946,639.06s13.359-.041,12.251,16.685c0,0-11.219,2.007-14.917-13.523Z" transform="translate(-450.764 -293.934)" fill="#1ca680"/>
    <path id="Path_27" data-name="Path 27" d="M1074.864,617.636s12.128-5.688,19.887,9c0,0-11.2,4.737-20.961-6.621Z" transform="translate(-457.225 -284.557)" fill="#1ca680"/>
    <path id="Path_28" data-name="Path 28" d="M1087.957,593.145s12.42-6.05,19.713,8.29c0,0-12.939,4.457-20.739-6.021Z" transform="translate(-462.7 -274.277)" fill="#1ca680"/>
    <path id="Path_29" data-name="Path 29" d="M1095.828,569.273s11.954-11.417,21.492.128c0,0-12.21,9.4-22.04,2.415Z" transform="translate(-466.178 -262.761)" fill="#1ca680"/>
    <path id="Path_30" data-name="Path 30" d="M1102.772,541.928s12.023-11.668,21.486.537c0,0-13.493,9.585-21.917,1.913Z" transform="translate(-469.12 -251.371)" fill="#1ca680"/>
    <path id="Path_31" data-name="Path 31" d="M1106.93,512.7s9.264-14.584,20.173-11.329c0,0-9.614,15.442-20.068,14.754Z" transform="translate(-471.032 -236.373)" fill="#1ca680"/>
    <path id="Path_32" data-name="Path 32" d="M1111.439,486.991s9.334-18.365,18.167-15.168c0,0-6.732,14.118-18.406,18.266Z" transform="translate(-472.811 -224.104)" fill="#1ca680"/>
    <path id="Path_33" data-name="Path 33" d="M1112.053,459.192s9.6-14.456,18.587-12.688c0,0-7.846,14.66-19.52,16.871Z" transform="translate(-472.778 -213.649)" fill="#1ca680"/>
    <path id="Path_34" data-name="Path 34" d="M1114,431.425s7.438-16.224,13.482-16.335c0,0-3.571,16.107-12.98,19.088Z" transform="translate(-473.978 -200.624)" fill="#1ca680"/>
    <path id="Path_35" data-name="Path 35" d="M1116.5,406.763s8.267-16.428,14.479-16.463c0,0-4.229,14.048-14.205,17.9Z" transform="translate(-475.019 -190.296)" fill="#1ca680"/>
    <path id="Path_36" data-name="Path 36" d="M1118.63,377.953s6.184-13.593,11.306-15.133c0,0-3.092,16.568-10.623,18.738Z" transform="translate(-475.906 -178.847)" fill="#1ca680"/>
    <path id="Path_37" data-name="Path 37" d="M1123.948,350.114l13.82-21.054s-3.541,20.768-15.839,25.085Z" transform="translate(-477.281 -164.782)" fill="#1ca680"/>
    <path id="Path_38" data-name="Path 38" d="M1136.871,316.805s16.061-11.084,16.644-12.875c0,0-8.167,15.524-23.335,18.266Z" transform="translate(-480.719 -154.313)" fill="#1ca680"/>
    <path id="Path_39" data-name="Path 39" d="M1142.984,304.8s18.441-17.729,23.148-17.711c0,0-15.209.694-23.592,16.766Z" transform="translate(-485.868 -147.297)" fill="#1ca680"/>
    <path id="Path_40" data-name="Path 40" d="M1118.94,360.64l.671.088c3.465-27.121,8.517-43.17,14.223-45.136l-.222-.642C1127.562,317.05,1122.475,332.854,1118.94,360.64Z" transform="translate(-476.036 -158.904)" fill="#444053"/>
    <path id="Path_41" data-name="Path 41" d="M1110.2,456.693l1.015.082c.216-2.532.379-5.122.49-7.707.969-22.448,2.468-43.065,4.44-58.519l-.583-.729c-1.977,15.489-3.9,36.724-4.871,59.207C1110.579,451.594,1110.416,454.173,1110.2,456.693Z" transform="translate(-472.394 -190.096)" fill="#444053"/>
    <path id="Path_42" data-name="Path 42" d="M976.608,625.9c.175-.076,18.044-8.056,36.589-27.086a147.135,147.135,0,0,0,26.748-37.92c8.576-17.46,13.8-38.917,15.553-59.762l-1.056.5c-3.938,46.787-25.237,78.757-42.173,96.171-18.365,18.861-36.035,26.76-36.21,26.835Z" transform="translate(-416.509 -236.47)" fill="#444053"/>
    <path id="Path_43" data-name="Path 43" d="M652.424,132.69H91.864a4.994,4.994,0,0,0-4.994,4.994v14.55H657.418v-14.55A4.994,4.994,0,0,0,652.424,132.69Z" transform="translate(-46.057 -82.971)" fill="#3f3d56"/>
    <path id="Path_44" data-name="Path 44" d="M86.87,166.19V493.607a10.069,10.069,0,0,0,10.069,10.069H647.348a10.069,10.069,0,0,0,10.069-10.069V166.19Z" transform="translate(-46.057 -96.928)" fill="#fff"/>
    <circle id="Ellipse_8" data-name="Ellipse 8" cx="2.334" cy="2.334" r="2.334" transform="translate(47.516 57.011)" fill="#fa5959" opacity="0.8"/>
    <circle id="Ellipse_9" data-name="Ellipse 9" cx="2.334" cy="2.334" r="2.334" transform="translate(53.934 57.011)" fill="#fed253" opacity="0.8"/>
    <circle id="Ellipse_10" data-name="Ellipse 10" cx="2.334" cy="2.334" r="2.334" transform="translate(60.351 57.011)" fill="#8ccf4d" opacity="0.8"/>
    <rect id="Rectangle_35" data-name="Rectangle 35" width="458.538" height="201.628" transform="translate(93.849 123.855)" opacity="0.05"/>
    <rect id="Rectangle_36" data-name="Rectangle 36" width="451.538" height="197.183" transform="translate(97.349 125.384)" fill="#3f3d56"/>
    <path id="Path_45" data-name="Path 45" d="M362.7,349.38a44.92,44.92,0,1,0,44.92,44.92A44.92,44.92,0,0,0,362.7,349.38Zm8.057,46v21.27h-15.88V395.38a13.155,13.155,0,1,1,15.88,0Z" transform="translate(-142.258 -173.248)" fill="#1ca680"/>
    <path id="Path_46" data-name="Path 46" d="M362.7,349.38a44.92,44.92,0,1,0,44.92,44.92A44.92,44.92,0,0,0,362.7,349.38Zm8.057,46v21.27h-15.88V395.38a13.155,13.155,0,1,1,15.88,0Z" transform="translate(-142.258 -173.248)" opacity="0.05"/>
    <path id="Path_47" data-name="Path 47" d="M353.535,327.38a57.755,57.755,0,1,0,57.755,57.755,57.755,57.755,0,0,0-57.755-57.755Zm10.355,59.143v27.343H343.471V386.523a16.918,16.918,0,1,1,20.418,0Z" transform="translate(-133.092 -164.082)" fill="#1ca680"/>
    <rect id="Rectangle_37" data-name="Rectangle 37" width="186.682" height="19.835" transform="translate(302.116 213.474)" fill="#fff"/>
    <rect id="Rectangle_38" data-name="Rectangle 38" width="40.253" height="19.835" transform="translate(448.545 249.644)" fill="#1ca680"/>
    <path id="Path_48" data-name="Path 48" d="M560.239,426.964h-3.378l3-3a.3.3,0,0,0,0-.414.292.292,0,0,0-.414,0l-3,3v-3.384a.292.292,0,0,0-.292-.292.3.3,0,0,0-.292.292v3.384l-3-3.022a.292.292,0,0,0-.414,0,.3.3,0,0,0,0,.414l3,3h-3.383a.3.3,0,0,0-.292.292.292.292,0,0,0,.292.292h3.383l-3,3a.3.3,0,0,0,0,.414.3.3,0,0,0,.414,0l3-3v3.378a.292.292,0,0,0,.583,0v-3.378l3,3a.3.3,0,0,0,.414,0,.3.3,0,0,0,0-.414l-3-3h3.378a.283.283,0,1,0,0-.566Z" transform="translate(-239.747 -203.869)" fill="#1ca680"/>
    <path id="Path_49" data-name="Path 49" d="M581.239,426.964h-3.378l3-3a.3.3,0,0,0,0-.414.292.292,0,0,0-.414,0l-3,3v-3.384a.292.292,0,0,0-.292-.292.3.3,0,0,0-.292.292v3.384l-3-3.022a.292.292,0,0,0-.414,0,.3.3,0,0,0,0,.414l3,3h-3.384a.3.3,0,0,0-.292.292.292.292,0,0,0,.292.292h3.384l-3,3a.3.3,0,0,0,0,.414.3.3,0,0,0,.414,0l3-3v3.378a.292.292,0,0,0,.583,0v-3.378l3,3a.3.3,0,0,0,.414,0,.3.3,0,0,0,0-.414l-3-3h3.378a.283.283,0,1,0,0-.566Z" transform="translate(-248.495 -203.869)" fill="#1ca680"/>
    <path id="Path_50" data-name="Path 50" d="M602.239,426.964h-3.378l3-3a.3.3,0,0,0,0-.414.292.292,0,0,0-.414,0l-3,3v-3.384a.292.292,0,0,0-.292-.292.3.3,0,0,0-.292.292v3.384l-3-3.022a.292.292,0,0,0-.414,0,.3.3,0,0,0,0,.414l3,3h-3.384a.3.3,0,0,0-.292.292.292.292,0,0,0,.292.292h3.384l-3,3a.3.3,0,0,0,0,.414.3.3,0,0,0,.414,0l3-3v3.378a.292.292,0,0,0,.583,0v-3.378l3,3a.3.3,0,0,0,.414,0,.3.3,0,0,0,0-.414l-3-3h3.378a.283.283,0,1,0,0-.566Z" transform="translate(-257.245 -203.869)" fill="#1ca680"/>
    <path id="Path_51" data-name="Path 51" d="M623.239,426.964h-3.378l3-3a.3.3,0,0,0,0-.414.292.292,0,0,0-.414,0l-3,3v-3.384a.292.292,0,0,0-.292-.292.3.3,0,0,0-.292.292v3.384l-3-3.022a.292.292,0,0,0-.414,0,.3.3,0,0,0,0,.414l3,3h-3.384a.3.3,0,0,0-.292.292.292.292,0,0,0,.292.292h3.384l-3,3a.3.3,0,0,0,0,.414.3.3,0,0,0,.414,0l3-3v3.378a.292.292,0,0,0,.583,0v-3.378l3,3a.3.3,0,0,0,.414,0,.3.3,0,0,0,0-.414l-3-3h3.378a.283.283,0,1,0,0-.566Z" transform="translate(-265.994 -203.869)" fill="#1ca680"/>
    <path id="Path_52" data-name="Path 52" d="M644.239,426.964h-3.378l3-3a.3.3,0,0,0,0-.414.292.292,0,0,0-.414,0l-3,3v-3.384a.292.292,0,0,0-.292-.292.3.3,0,0,0-.292.292v3.384l-3-3.022a.292.292,0,0,0-.414,0,.3.3,0,0,0,0,.414l3,3h-3.384a.3.3,0,0,0-.292.292.292.292,0,0,0,.292.292h3.384l-3,3a.3.3,0,0,0,0,.414.3.3,0,0,0,.414,0l3-3v3.378a.292.292,0,0,0,.583,0v-3.378l3,3a.3.3,0,0,0,.414,0,.3.3,0,0,0,0-.414l-3-3h3.378a.283.283,0,1,0,0-.566Z" transform="translate(-274.743 -203.869)" fill="#1ca680"/>
    <path id="Path_53" data-name="Path 53" d="M665.239,426.964h-3.378l3-3a.3.3,0,0,0,0-.414.291.291,0,0,0-.414,0l-3,3v-3.384a.292.292,0,0,0-.292-.292.3.3,0,0,0-.292.292v3.384l-3-3.022a.292.292,0,0,0-.414,0,.3.3,0,0,0,0,.414l3,3h-3.384a.3.3,0,0,0-.292.292.292.292,0,0,0,.292.292h3.384l-3,3a.3.3,0,0,0,0,.414.3.3,0,0,0,.414,0l3-3v3.378a.292.292,0,0,0,.583,0v-3.378l3,3a.3.3,0,0,0,.414,0,.3.3,0,0,0,0-.414l-3-3h3.378a.283.283,0,1,0,0-.566Z" transform="translate(-283.491 -203.869)" fill="#1ca680"/>
    <path id="Path_54" data-name="Path 54" d="M686.239,426.964h-3.378l3-3a.3.3,0,0,0,0-.414.292.292,0,0,0-.414,0l-3,3v-3.384a.291.291,0,0,0-.292-.292.3.3,0,0,0-.292.292v3.384l-3-3.022a.292.292,0,0,0-.414,0,.3.3,0,0,0,0,.414l3,3h-3.384a.3.3,0,0,0-.292.292.292.292,0,0,0,.292.292h3.384l-3,3a.3.3,0,0,0,0,.414.3.3,0,0,0,.414,0l3-3v3.378a.292.292,0,1,0,.583,0v-3.378l3,3a.3.3,0,0,0,.414,0,.3.3,0,0,0,0-.414l-3-3h3.378a.283.283,0,1,0,0-.566Z" transform="translate(-292.24 -203.869)" fill="#1ca680"/>
    <path id="Path_55" data-name="Path 55" d="M707.239,426.964h-3.378l3-3a.3.3,0,0,0,0-.414.292.292,0,0,0-.414,0l-3,3v-3.384a.292.292,0,0,0-.292-.292.3.3,0,0,0-.292.292v3.384l-3-3.022a.292.292,0,0,0-.414,0,.3.3,0,0,0,0,.414l3,3h-3.384a.3.3,0,0,0-.292.292.292.292,0,0,0,.292.292h3.384l-3,3a.3.3,0,0,0,0,.414.3.3,0,0,0,.414,0l3-3v3.378a.292.292,0,0,0,.583,0v-3.378l3,3a.3.3,0,0,0,.414,0,.3.3,0,0,0,0-.414l-3-3h3.378a.283.283,0,1,0,0-.566Z" transform="translate(-300.989 -203.869)" fill="#1ca680"/>
    <path id="Path_56" data-name="Path 56" d="M728.239,426.964h-3.378l3-3a.3.3,0,0,0,0-.414.292.292,0,0,0-.414,0l-3,3v-3.384a.292.292,0,0,0-.292-.292.3.3,0,0,0-.292.292v3.384l-3-3.022a.292.292,0,0,0-.414,0,.3.3,0,0,0,0,.414l3,3h-3.384a.3.3,0,0,0-.292.292.292.292,0,0,0,.292.292h3.384l-3,3a.3.3,0,0,0,0,.414.3.3,0,0,0,.414,0l3-3v3.378a.292.292,0,0,0,.583,0v-3.378l3,3a.3.3,0,0,0,.414,0,.3.3,0,0,0,0-.414l-3-3h3.378a.283.283,0,1,0,0-.566Z" transform="translate(-309.738 -203.869)" fill="#1ca680"/>
    <path id="Path_57" data-name="Path 57" d="M749.239,426.964h-3.378l3-3a.3.3,0,0,0,0-.414.292.292,0,0,0-.414,0l-3,3v-3.384a.292.292,0,0,0-.292-.292.3.3,0,0,0-.292.292v3.384l-3-3.022a.292.292,0,0,0-.414,0,.3.3,0,0,0,0,.414l3,3h-3.384a.3.3,0,0,0-.292.292.292.292,0,0,0,.292.292h3.384l-3,3a.3.3,0,0,0,0,.414.3.3,0,0,0,.414,0l3-3v3.378a.292.292,0,0,0,.583,0v-3.378l3,3a.3.3,0,0,0,.414,0,.3.3,0,0,0,0-.414l-3-3h3.378a.283.283,0,1,0,0-.566Z" transform="translate(-318.487 -203.869)" fill="#1ca680"/>
    <path id="Path_58" data-name="Path 58" d="M770.239,426.964h-3.378l3-3a.3.3,0,0,0,0-.414.292.292,0,0,0-.414,0l-3,3v-3.384a.292.292,0,0,0-.292-.292.3.3,0,0,0-.292.292v3.384l-3-3.022a.292.292,0,0,0-.414,0,.3.3,0,0,0,0,.414l3,3h-3.384a.3.3,0,0,0-.292.292.292.292,0,0,0,.292.292h3.384l-3,3a.3.3,0,0,0,0,.414.3.3,0,0,0,.414,0l3-3v3.378a.292.292,0,0,0,.583,0v-3.378l3,3a.3.3,0,0,0,.414,0,.3.3,0,0,0,0-.414l-3-3h3.378a.283.283,0,1,0,0-.566Z" transform="translate(-327.236 -203.869)" fill="#1ca680"/>
    <path id="Path_59" data-name="Path 59" d="M874.017,516.461a10.423,10.423,0,0,0-.263-2.094c-.525-1.972-1.709-4.358-3.658-4.953a30.7,30.7,0,0,1-5.8-2.45c-.35-6.254,1.085-12.654-.478-18.715-.583-2.217-1.546-4.34-1.8-6.61-.321-2.824.449-5.834-.677-8.436a8.325,8.325,0,0,0-4.93-4.259,26.271,26.271,0,0,0-6.575-1.167c-2.8-.228-11.866-1.3-15.028,1.2h0a3.307,3.307,0,0,0-.583.583h0a2.344,2.344,0,0,0-.187.3l-.029.047a2.371,2.371,0,0,0-.158.379h0a2.918,2.918,0,0,0-.1.438v1.05c.041.525.117,1.05.117,1.569a3.371,3.371,0,0,1-.07.77,5.389,5.389,0,0,1-.968,1.89h0l-.1.152c-.064.093-.128.181-.187.274s-.1.163-.152.245-.093.134-.134.21a2.864,2.864,0,0,0-.152.3c0,.058-.064.111-.088.169a2.89,2.89,0,0,0-.175.49,3.253,3.253,0,0,0-.035,1.552,5.771,5.771,0,0,0,.8,1.838c.146.239.3.473.467.706l.408.554a12.635,12.635,0,0,0-.123,1.634,12.069,12.069,0,0,0,4.607,9.485,35.742,35.742,0,0,1-.074,7.4c-.053.513-.117,1.033-.187,1.546s-.123.852-.193,1.278a5.92,5.92,0,0,1-2.549-.193,12,12,0,0,0-1.167-.449c-1.7-.426-3.43,1.266-5.11.753a.684.684,0,0,1-.076.233,2.287,2.287,0,0,0-1.167-.344,4.256,4.256,0,0,1-2.532-1.453l-2.223-2.094a2.472,2.472,0,0,1-.385-.432,3.033,3.033,0,0,1-.268-.718,8.269,8.269,0,0,0-2.153-3.086,1.46,1.46,0,0,0-.636-.461.978.978,0,0,0-.292,0,2.62,2.62,0,0,0-.193-.233,5.517,5.517,0,0,0-.484-.49c-1.062-.98-1.167-1.82-2.089-2.917a28.067,28.067,0,0,1-2.182-3.3c-.076-.613-.181-1.243-.309-1.879a24.178,24.178,0,0,0-1.277-4.259l-1.167-2.584-.134.134c-.846-1.26-1.75-1.948-2.561-1.785-1.359.28-2.03,2.917-1.814,6.365l.467,3.5a1.079,1.079,0,0,0,.064.262,6.454,6.454,0,0,0-.128,1.26c0,.49.455.852.694,1.289a3.646,3.646,0,0,1,.583,1.989c-.029.251-.1.49-.117.735a2.828,2.828,0,0,0,.548,1.517l2.917,4.9.583,1.027.035.047a2.492,2.492,0,0,0,.782.9,10.681,10.681,0,0,0,.963,3.541c.1.222.21.432.327.642a20.632,20.632,0,0,0,2.754,3.576L818.6,511.4c1.371,1.529,2.742,3.063,4.229,4.475a5.663,5.663,0,0,0,1.89,1.324,2.141,2.141,0,0,0,2.124-.309v2.17a1.219,1.219,0,0,1,.921,1.919,48.1,48.1,0,0,1-4.317,9.136,19.433,19.433,0,0,1,3.617,2.759,16.258,16.258,0,0,1,1.884,2.549c.052.432.093.857.117,1.283.432,6.954-2.258,13.855-4.667,20.483a15.956,15.956,0,0,0-1.394,5.8,11.367,11.367,0,0,0-1.307.939,8.649,8.649,0,0,1,.239,3.7,6.553,6.553,0,0,1-.484,2.334,16.419,16.419,0,0,1-.84,1.5c-1.511,2.666-1.843,5.834-2.147,8.879-.181,1.838.531,4.084-.3,5.729a23.441,23.441,0,0,0-2.917,8.972,8.988,8.988,0,0,1-.268,2.094c-.181.583-.5,1.079-.665,1.651a7.068,7.068,0,0,0-.117,2.333,22.333,22.333,0,0,1-1.225,8.232c-.729,2.083-1.534,4.311-.963,6.452a9.1,9.1,0,0,0-2.468,5.42,8.546,8.546,0,0,1-.187,1.546,7.527,7.527,0,0,1-.7,1.488,13.02,13.02,0,0,0-1.587,7,19.473,19.473,0,0,0-3.145,8.214c-.519,2.911-.747,5.875-1.412,8.751-.887,3.8-2.491,7.648-2.806,11.545-1.89,1.208-2.707,3.547-3.069,5.758s-.42,4.533-1.348,6.575c-.478,1.062-1.167,2.013-1.622,3.1a14.257,14.257,0,0,0-.7,2.666,10.407,10.407,0,0,0-.181,4.376,6.6,6.6,0,0,1-1.709,1.3c.093-.362.169-.724.233-1.091-1.505,1.365-4.235.887-5.437,2.526a2.462,2.462,0,0,0,.583,3.378,4.68,4.68,0,0,0,1.208.519c2.917.933,5.916,1.873,8.914,1.377a2.66,2.66,0,0,0,1.009-.321,3.248,3.248,0,0,0,.939-1.085c.449-.712.9-1.423,1.342-2.135a27.727,27.727,0,0,0,3.273.764c.111.933.193,1.867.233,2.8.583.117,1.365.152,1.639-.391a1.417,1.417,0,0,0,.1-.648c0-.414.058-.963.093-1.523h.117a11.083,11.083,0,0,0,5.163-1.044c-.624-5.169,1.435-10.221,3.22-15.11,1.884-5.145,3.5-10.384,5.128-15.623,1.167-3.687,2.456-7.257,3.6-10.95q2.159-7,4.334-14c.63-2.054,1.266-4.084,1.989-6.126a95.42,95.42,0,0,1,5.408-12.035c.583-1.1,1.167-2.193,1.645-3.337.583-1.394,1-2.853,1.464-4.294a66.473,66.473,0,0,1,3.664-8.622c.041-.076.07-.146.111-.216.473,1.931.945,3.891,1.26,5.834a22.171,22.171,0,0,1,.1,7.211,23.77,23.77,0,0,0-.747,4.889c.087,2.281,1.307,4.352,1.908,6.551a24.942,24.942,0,0,1,.653,5.017c.163,2.625,1.587,5.571.583,8-3.121,7.707-1.61,16.411-3.39,24.5-.916,4.154-3.722,8.057-3.5,12.3q.233,4.521.793,9.019a8.594,8.594,0,0,0,.73,2.736,10.057,10.057,0,0,0,.8,1.307c-.257.1-.473.362-.659.916a3.6,3.6,0,0,0,1.3,4.084,5.668,5.668,0,0,0,1.686.583,8.885,8.885,0,0,0,2.438.338,5.65,5.65,0,0,0,.764-.093,27.742,27.742,0,0,0,2.76.992,6.016,6.016,0,0,0,.076.718.893.893,0,0,0,.3.659.911.911,0,0,0,.467.082h3.168v-.793a2.607,2.607,0,0,0,2.013-.653,3.118,3.118,0,0,0,.583-1.214q1.295-4.393,2.573-8.792a28.107,28.107,0,0,0,1.255-10.034c-1.126-10.752,1.347-21.539.542-32.32a77.424,77.424,0,0,1,.992-19.391c.263-1.447.583-2.917.7-4.358.257-2.719-.058-5.466.134-8.167.064-.945.193-1.884.309-2.824a135.568,135.568,0,0,0,1.254-17.589,55.431,55.431,0,0,0-.362-5.834,3.33,3.33,0,0,0,1.593-.933,3.968,3.968,0,0,0,.379-2.491c0-2.065.869-4.014,1.569-5.962a70.81,70.81,0,0,0,2.205-8.2,28.642,28.642,0,0,0,.98-6.855q0-.35-.035-.7a1.808,1.808,0,0,0,.537-.583,3.386,3.386,0,0,0,.28-1.079c.21-1.488.426-2.981.636-4.475q.233-1.6.461-3.2L872.99,532.6c.157-1.126.321-2.246.478-3.366l.484-3.349c.052-.4.111-.794.152-1.167C875.528,522.341,874.168,519.168,874.017,516.461ZM858.54,564.928a10.666,10.666,0,0,1-1.167-5.07h-.064a2.6,2.6,0,0,0-.076-1.645c-.181-.426-.5-.787-.688-1.213a4.445,4.445,0,0,1-.315-1.633,44.534,44.534,0,0,1,.834-10.583c.076-.408.158-.823.233-1.231a3.051,3.051,0,0,0,.665-.519,4.733,4.733,0,0,0,.752-1.167c.659-1.324,1.26-2.672,1.814-4.043.181-.443.443-.957.893-1.068-.093,3.413.257,6.9-1.132,9.976a6.314,6.314,0,0,0-.583,1.575c-.128.869.233,1.75.105,2.614-.064.449-.257.863-.333,1.307a1.278,1.278,0,0,0,.339,1.237,1.012,1.012,0,0,0,.251.128c-.035.233-.064.472-.087.7-.047.478-.07.928-.1,1.208a37.649,37.649,0,0,0-.157,4.294c0,1.546.058,3.092.035,4.667a3.164,3.164,0,0,1-.221,1.324,2.306,2.306,0,0,1-.443.583A15.16,15.16,0,0,0,858.54,564.928Z" transform="translate(-337.095 -222.398)" fill="url(#linear-gradient)"/>
    <ellipse id="Ellipse_11" data-name="Ellipse 11" cx="3.29" cy="9.317" rx="3.29" ry="9.317" transform="matrix(0.98, -0.201, 0.201, 0.98, 468.433, 257.246)" fill="#fbbebe"/>
    <path id="Path_60" data-name="Path 60" d="M878.27,838.17a3.532,3.532,0,0,0,1.3,4.043,5.764,5.764,0,0,0,1.674.583,8.831,8.831,0,0,0,2.433.333c1.009-.047,1.978-.443,2.987-.583a.468.468,0,0,1,.344.047.5.5,0,0,1,.128.409,15.349,15.349,0,0,0,.128,1.715.881.881,0,0,0,.3.659.911.911,0,0,0,.467.082h3.162a30.837,30.837,0,0,0-.9-8.249,1.841,1.841,0,0,0-.233-.583,1.93,1.93,0,0,0-1.009-.583,5.635,5.635,0,0,0-2.444-.426,7.155,7.155,0,0,0-2.742,1.342,4.178,4.178,0,0,1-3.109.753C879.694,837.429,878.813,836.548,878.27,838.17Z" transform="translate(-375.693 -375.819)" fill="#3f3d56"/>
    <path id="Path_61" data-name="Path 61" d="M796.023,834.754a8.749,8.749,0,0,1-3.191,2.17l-.537.257a.372.372,0,0,0-.181.146.315.315,0,0,0,.058.263,3.775,3.775,0,0,0,4.282,1.558,2.272,2.272,0,0,0,.939-.49,3.08,3.08,0,0,0,.723-1.878,3.845,3.845,0,0,0-.087-2.153C797.219,832.8,796.922,833.628,796.023,834.754Z" transform="translate(-339.871 -374.964)" fill="#fbbebe"/>
    <path id="Path_62" data-name="Path 62" d="M805.595,842.181a1.42,1.42,0,0,1-.1.648c-.274.537-1.038.507-1.634.391a39.243,39.243,0,0,0-.717-5.892c-1.132-.053-1.948,1.021-2.555,1.984l-1.563,2.479a3.234,3.234,0,0,1-.933,1.085,2.761,2.761,0,0,1-1.009.321c-2.987.5-6-.443-8.885-1.377a4.7,4.7,0,0,1-1.207-.513,2.467,2.467,0,0,1-.583-3.372c1.207-1.634,3.92-1.167,5.425-2.521a13.574,13.574,0,0,1-.77,2.783c2.013-.3,3.366-2.147,4.988-3.378a3.07,3.07,0,0,1,1.424-.677,3.137,3.137,0,0,1,1.167.123,13.687,13.687,0,0,1,5.134,2.526,5.529,5.529,0,0,1,1.838,1.913A14.162,14.162,0,0,1,805.595,842.181Z" transform="translate(-337.32 -375.204)" fill="#3f3d56"/>
    <circle id="Ellipse_12" data-name="Ellipse 12" cx="12.053" cy="12.053" r="12.053" transform="translate(496.353 250.391)" fill="#fbbebe"/>
    <path id="Path_63" data-name="Path 63" d="M920.165,616.6a28.582,28.582,0,0,1-.974,6.82,70.361,70.361,0,0,1-2.205,8.167c-.694,1.943-1.563,3.891-1.557,5.951a3.956,3.956,0,0,1-.385,2.485,3.629,3.629,0,0,1-1.7.974,2.13,2.13,0,0,0-1.435,1.278,9.015,9.015,0,0,1-1.214-2.672q-1.569-4.807-2.917-9.667a1.255,1.255,0,0,1,.082-1.167,1.448,1.448,0,0,1,.507-.286,5.249,5.249,0,0,0,1.616-1.038,2.363,2.363,0,0,0,.537-.694,3.148,3.148,0,0,0,.228-1.319c0-1.546,0-3.086-.041-4.632a38.7,38.7,0,0,1,.164-4.276c0-.28.052-.729.1-1.208.088-.916.263-1.978.759-2.333.741-.5,2.958.169,3.8.286,1.447.2,2.917.432,4.328.706A11.569,11.569,0,0,1,920.165,616.6Z" transform="translate(-388.016 -282.993)" fill="#3f3d56"/>
    <path id="Path_64" data-name="Path 64" d="M836.244,511.837c-.467.933-1.587,1.383-2.45,1.972l-2.958,2.03a1.972,1.972,0,0,1-1.464.5,1.925,1.925,0,0,1-1.091-1.021.214.214,0,0,0,0-.047l-.613-1.027-2.917-4.889a2.781,2.781,0,0,1-.542-1.505c0-.251.087-.484.111-.735a3.53,3.53,0,0,0-.583-1.984c-.234-.437-.7-.8-.688-1.289a4.67,4.67,0,0,1,.327-1.884,3.817,3.817,0,0,1,1.278-1.365c.274-.2.554-.385.846-.583a1.668,1.668,0,0,1,.508-.233c.484-.1.963.3,1.452.321,2.106,1.412,2.917,4.084,4.574,6.009.933,1.1,1.027,1.937,2.083,2.917.169.152.333.315.49.484a3.393,3.393,0,0,1,.525.758C835.322,510.77,836.483,511.359,836.244,511.837Z" transform="translate(-352.761 -235.9)" fill="#3f3d56"/>
    <path id="Path_65" data-name="Path 65" d="M877.25,511.666a10.859,10.859,0,0,1,1.3,5.875,3.669,3.669,0,0,1-.508,1.546c-.84,1.289-2.6,1.523-4.136,1.6a2.438,2.438,0,0,0-1.8.583,1.634,1.634,0,0,0,.111,2A4.505,4.505,0,0,0,874,524.43a15.807,15.807,0,0,0,7.683,1.7c1.225-.117,2.415-.472,3.635-.653a38.144,38.144,0,0,1,4-.222c1.587-.058,3.168-.216,4.749-.373l4.189-.414a.932.932,0,0,0,.624-.227c.309-.362-.087-.893-.472-1.167-2.223-1.645-5.052-2.777-6.318-5.25a30.822,30.822,0,0,1-1.2-3.815,32.083,32.083,0,0,1-1.389-3.681,24.412,24.412,0,0,1-.192-3.4,4.557,4.557,0,0,0-1.167-3.1,4.866,4.866,0,0,0-3.174-1.021c-2.788-.122-5.758.543-7.736,2.509-.531.531-.986,1.167-1.534,1.645s-1.3.618-.933,1.248,1.073,1.021,1.459,1.575a13.423,13.423,0,0,1,1.021,1.879Z" transform="translate(-373.08 -237.164)" fill="#fbbebe"/>
    <path id="Path_66" data-name="Path 66" d="M891.991,536.38a66.276,66.276,0,0,1-3.57,13.143,49.5,49.5,0,0,0-2.1,5.892c-.449,1.808-.362,3.745-.776,5.56-.513,2.258-1.027,4.521-1.441,6.8a44.566,44.566,0,0,0-.828,10.559,4.415,4.415,0,0,0,.315,1.628c.193.42.5.782.683,1.214a2.915,2.915,0,0,1-.163,2.334,6.76,6.76,0,0,1-1.2,1.82c-5.437,1.622-11.253,1.091-16.918,1.435-5.221.315-10.5,1.388-15.646.5-.583-2.334.391-4.778,1.225-7.053,2.421-6.61,5.1-13.494,4.667-20.418a21.151,21.151,0,0,0-.274-2.409c-.846-4.906.076-9.987,1.552-14.742a25.3,25.3,0,0,0,.665-9.206,16.842,16.842,0,0,1-.041-3.016,5.3,5.3,0,0,1,1.1-2.818c0-.041.052-.082.082-.123a.8.8,0,0,1,.438,0h0a.373.373,0,0,0,.292,0l.064-.041a.146.146,0,0,1,.169,0c.134.082.21.362.5.414a11.651,11.651,0,0,0,1.3.122,7.005,7.005,0,0,1,1.552.222h.07a4.554,4.554,0,0,0,2.263-.193,6.016,6.016,0,0,0,1.389-.537c.128-.14.933-.268,1.1-.367.531-.321.414-1.826.525-2.444a6.728,6.728,0,0,1,.438-1.808,3.08,3.08,0,0,1,2.5-1.453,13.3,13.3,0,0,1,2.993.268c2.176.309,4.4.257,6.54.758,1.073.251,2.246.63,3.232.14.268.064.309.3.309.583a3.736,3.736,0,0,1-.163.8c-.374,1.61.893,3.092,2.059,4.259a6.609,6.609,0,0,0,1.721,1.371c.583.268,1.167.379,1.75.671a3.183,3.183,0,0,1,1.167,1.068,4.454,4.454,0,0,1,.665,1.7A10.154,10.154,0,0,1,891.991,536.38Z" transform="translate(-364.06 -244.908)" fill="#3f3d56"/>
    <path id="Path_67" data-name="Path 67" d="M895.912,540.678a66.3,66.3,0,0,1-3.57,13.144,49.483,49.483,0,0,0-2.1,5.892c-.449,1.808-.362,3.745-.776,5.56-.513,2.258-1.027,4.521-1.441,6.8-.123.07-.251.134-.379.193a8.954,8.954,0,0,1-2.287.735,14,14,0,0,1-4.27-.14l-8.325-1.114c-3.325-.449-6.866-.992-9.334-3.244a19.911,19.911,0,0,1-3.255-4.445,21.123,21.123,0,0,0-.274-2.409c-.846-4.906.076-9.987,1.552-14.742a25.3,25.3,0,0,0,.665-9.206,16.821,16.821,0,0,1-.041-3.016,5.306,5.306,0,0,1,1.1-2.818,4.189,4.189,0,0,1,.519-.117h0a2.607,2.607,0,0,1,.356-.047h.169a2.546,2.546,0,0,1,.583.07,10.572,10.572,0,0,1,1.167.449h.07a4.469,4.469,0,0,0,1.552.222c.77,0,1.563-.123,2.334-.175a4.306,4.306,0,0,1,2.765.5,16.632,16.632,0,0,1,1.54,1.406,6.613,6.613,0,0,0,1.943,1.056,20.647,20.647,0,0,0,15.53-.327,3.037,3.037,0,0,1,1.557-.4,2.913,2.913,0,0,1,1.12.478c.35.2.694.4,1.05.583a4.461,4.461,0,0,1,.665,1.7A10.16,10.16,0,0,1,895.912,540.678Z" transform="translate(-367.98 -249.206)" opacity="0.1"/>
    <path id="Path_68" data-name="Path 68" d="M897.395,536.017a31.141,31.141,0,0,1-6.651-2.917,2.981,2.981,0,0,0-1.12-.478,3.132,3.132,0,0,0-1.564.4,20.635,20.635,0,0,1-15.524.327,6.744,6.744,0,0,1-1.943-1.056,17.463,17.463,0,0,0-1.54-1.406c-1.919-1.243-4.574.216-6.721-.583a11.857,11.857,0,0,0-1.167-.449c-1.7-.426-3.425,1.266-5.093.753a28.376,28.376,0,0,0-1.371,5.2,56.6,56.6,0,0,0-.379,6.137c0,1.231-.058,2.462,0,3.693a1.211,1.211,0,0,1,.921,1.913,47.824,47.824,0,0,1-4.3,9.107,19.785,19.785,0,0,1,3.6,2.753c2.042,2.159,3.045,5.186,5.251,7.181,2.485,2.246,6.026,2.794,9.334,3.238l8.325,1.114a14.229,14.229,0,0,0,4.276.146,9.009,9.009,0,0,0,2.281-.741,4.085,4.085,0,0,0,1.272-.84,4.663,4.663,0,0,0,.753-1.167c.659-1.318,1.26-2.666,1.814-4.031.193-.484.484-1.05,1.009-1.091,3.092-2.789,6.009-5.647,9.1-8.436a20.161,20.161,0,0,0,3.32-3.5c1.534-2.269.14-5.484,0-8.226a10.362,10.362,0,0,0-.263-2.082C900.516,538.986,899.337,536.606,897.395,536.017Z" transform="translate(-364.382 -248.406)" fill="#1ca680"/>
    <path id="Path_69" data-name="Path 69" d="M839.98,518.722c-.467.933-1.587,1.383-2.45,1.972l-2.958,2.03a1.972,1.972,0,0,1-1.464.5,1.925,1.925,0,0,1-1.091-1.021v-.42a3.92,3.92,0,0,1,.186-1.394,4.348,4.348,0,0,1,1.307-1.68,10.7,10.7,0,0,1,3.833-2.333,1.314,1.314,0,0,1,.7-.07.92.92,0,0,1,.257.111,3.378,3.378,0,0,1,.525.758C839.058,517.654,840.219,518.243,839.98,518.722Z" transform="translate(-356.496 -242.784)" opacity="0.1"/>
    <path id="Path_70" data-name="Path 70" d="M847.462,525.14a4.249,4.249,0,0,1-2.526-1.447l-2.211-2.054a2.078,2.078,0,0,1-.385-.432,3.032,3.032,0,0,1-.268-.718,8.235,8.235,0,0,0-2.147-3.08,1.4,1.4,0,0,0-.636-.455,1.276,1.276,0,0,0-.706.07,10.669,10.669,0,0,0-3.833,2.333,4.356,4.356,0,0,0-1.307,1.68,3.877,3.877,0,0,0-.187,1.394,10.716,10.716,0,0,0,1.015,4.457c.1.216.21.432.327.642a20.2,20.2,0,0,0,2.742,3.564l1.388,1.552c1.365,1.528,2.73,3.057,4.212,4.463a5.563,5.563,0,0,0,1.89,1.318,2.111,2.111,0,0,0,2.17-.35,3.138,3.138,0,0,0,.618-1.109,21.814,21.814,0,0,0,1.8-7.275,27.553,27.553,0,0,0-.128-3.016C849.206,525.618,848.454,525.2,847.462,525.14Z" transform="translate(-357.013 -243.054)" fill="#1ca680"/>
    <path id="Path_71" data-name="Path 71" d="M868.2,651.8a134.823,134.823,0,0,1-1.249,17.542c-.117.939-.245,1.879-.309,2.818-.193,2.724.123,5.461-.134,8.167-.134,1.464-.438,2.917-.694,4.346a77.292,77.292,0,0,0-.992,19.339c.805,10.752-1.663,21.509-.542,32.232a26.067,26.067,0,0,1-.344,6.236,26.477,26.477,0,0,1-.9,3.769q-1.278,4.381-2.567,8.751a3.033,3.033,0,0,1-.583,1.213,2.764,2.764,0,0,1-2.188.648c-3.366-.1-6.534-1.557-9.591-2.975a3.339,3.339,0,0,1-.963-.583c-.636-.659-.583-1.7-.863-2.567a24.465,24.465,0,0,0-1.47-2.578,8.416,8.416,0,0,1-.636-2.654q-.583-4.48-.793-9c-.222-4.235,2.579-8.132,3.5-12.251,1.75-8.1.268-16.778,3.378-24.461.98-2.427-.443-5.367-.583-7.981a25.318,25.318,0,0,0-.653-5.005c-.583-2.194-1.814-4.259-1.9-6.534a24,24,0,0,1,.741-4.871,21.9,21.9,0,0,0-.1-7.193c-.309-1.96-.782-3.92-1.254-5.834l-.1.216a65.866,65.866,0,0,0-3.658,8.6c-.467,1.429-.875,2.888-1.459,4.276-.478,1.167-1.067,2.234-1.645,3.331a95.674,95.674,0,0,0-5.4,11.989c-.723,2.018-1.359,4.084-1.989,6.108l-4.323,14c-1.167,3.681-2.444,7.24-3.588,10.915-1.616,5.25-3.232,10.454-5.11,15.588-1.75,4.871-3.833,9.917-3.209,15.063a11.086,11.086,0,0,1-5.151,1.044,30.166,30.166,0,0,1-8.751-2.123,6.8,6.8,0,0,1-3.022-1.8c-1.3-1.581-.974-3.9-.583-5.91a14.289,14.289,0,0,1,.7-2.66c.443-1.073,1.167-2.024,1.622-3.086.916-2.036.974-4.34,1.336-6.552s1.167-4.544,3.057-5.746c.321-3.885,1.919-7.718,2.8-11.516.665-2.876.887-5.834,1.412-8.751a19.219,19.219,0,0,1,3.133-8.2,12.993,12.993,0,0,1,1.587-7,7.648,7.648,0,0,0,.694-1.487,8.558,8.558,0,0,0,.187-1.54,9.108,9.108,0,0,1,2.462-5.408c-.583-2.129.228-4.352.957-6.417a22.3,22.3,0,0,0,1.225-8.208,7.206,7.206,0,0,1,.111-2.334c.163-.583.484-1.079.671-1.639a9.351,9.351,0,0,0,.262-2.094,24.222,24.222,0,0,1,2.917-8.949c.84-1.645.128-3.879.3-5.711.3-3.045.636-6.2,2.147-8.85.28-.5.583-.98.834-1.5a6.485,6.485,0,0,0,.484-2.334,8.588,8.588,0,0,0-.239-3.687c3.121-2.6,7.38-3.325,11.44-3.5s8.167.193,12.14-.671c1.167-.263,2.333-.624,3.564-.8,2.794-.408,5.63.228,8.389.858a9.993,9.993,0,0,0,1.167,5.058A54.3,54.3,0,0,1,868.2,651.8Z" transform="translate(-342.397 -288.042)" fill="#33313f"/>
    <path id="Path_72" data-name="Path 72" d="M888.9,673.29l-6.7,15.075c-.309-1.96-.782-3.92-1.254-5.834l-.105.216v-.315l3.652-8.033Z" transform="translate(-376.839 -308.195)" opacity="0.1"/>
    <path id="Path_73" data-name="Path 73" d="M922.491,616.6a2.52,2.52,0,0,1-1.33.5,6.473,6.473,0,0,1-2.182-.3l-5.25-1.313a2.581,2.581,0,0,1-.479-.169c.088-.916.263-1.978.758-2.333.741-.5,2.958.169,3.8.286,1.447.2,2.917.432,4.329.706A11.558,11.558,0,0,1,922.491,616.6Z" transform="translate(-390.341 -282.993)" opacity="0.1"/>
    <path id="Path_74" data-name="Path 74" d="M926.542,558.48c.111.484.268.963.362,1.453a11.087,11.087,0,0,1-.123,3.611l-.478,3.337-.478,3.354-1.849,12.91-.455,3.2-.642,4.463a3.211,3.211,0,0,1-.28,1.074,2.234,2.234,0,0,1-1.826,1.079,6.618,6.618,0,0,1-2.182-.3l-5.25-1.318a1.646,1.646,0,0,1-.642-.262,1.266,1.266,0,0,1-.338-1.231c.076-.443.268-.858.332-1.3.128-.863-.233-1.75-.1-2.608a6.5,6.5,0,0,1,.583-1.569c1.75-3.868.735-8.383,1.33-12.584a19.075,19.075,0,0,1,4.049-9.007,25.854,25.854,0,0,1,4.469-4.387,9,9,0,0,1,2.514-1.75C926.588,556.421,926.366,557.745,926.542,558.48Z" transform="translate(-389.953 -259.587)" fill="#1ca680"/>
    <path id="Path_75" data-name="Path 75" d="M864.7,471.555c-.385,1.225.216,2.573-.058,3.821-.3,1.377-1.593,2.333-1.96,3.716-.583,2.106,1.2,4.025,2.508,5.776,4.842,6.5,4.206,15.495,2.549,23.423a120.93,120.93,0,0,1-5.513,18.668,14.3,14.3,0,0,1-2.969,5.209c2.684-.77,5.536-1.546,8.226-.8,3.407.945,6.347,4.253,9.8,3.5,2.077-.461,3.535-2.3,5.4-3.325,3.5-1.884,7.718-.7,11.621-.093a4.563,4.563,0,0,0,2.538-.128,4.218,4.218,0,0,0,1.54-1.418,14.386,14.386,0,0,0,3-7.759,9.953,9.953,0,0,0-2.864-7.66,16.4,16.4,0,0,1-2.456-2.333,7.243,7.243,0,0,1-.962-3.535c-.461-6.417,1.1-12.969-.508-19.176-.583-2.211-1.534-4.329-1.791-6.592-.321-2.818.443-5.834-.677-8.412a8.249,8.249,0,0,0-4.918-4.247,26.94,26.94,0,0,0-6.557-1.167C877.456,468.755,866.039,467.384,864.7,471.555Z" transform="translate(-367.848 -222.914)" fill="#33313f"/>
    <g id="Group_1" data-name="Group 1" transform="translate(491.412 247.305)" opacity="0.1">
      <path id="Path_76" data-name="Path 76" d="M869.884,514.484a120.707,120.707,0,0,1-5.484,18.592c.4-.8.741-1.639,1.062-2.474a120.3,120.3,0,0,0,5.513-18.668c1.662-7.934,2.3-16.918-2.543-23.423-1.167-1.552-2.666-3.232-2.614-5.052a6.22,6.22,0,0,0-.992,1.832c-.583,2.106,1.2,4.025,2.508,5.776C872.176,497.56,871.541,506.556,869.884,514.484Z" transform="translate(-861.401 -476.413)"/>
      <path id="Path_77" data-name="Path 77" d="M868.5,475.948a5.677,5.677,0,0,0,1.027-1.966,10.006,10.006,0,0,0-.07-2.6,2.8,2.8,0,0,0-.968,1.336C868.145,473.749,868.542,474.869,868.5,475.948Z" transform="translate(-863.046 -471.38)"/>
      <path id="Path_78" data-name="Path 78" d="M899.484,567.828a4.2,4.2,0,0,1-1.54,1.412,4.455,4.455,0,0,1-2.538.128c-3.9-.583-8.167-1.785-11.621.1-1.873,1.015-3.325,2.859-5.408,3.325-3.448.77-6.388-2.538-9.795-3.5-2.415-.671-4.959-.117-7.392.583a10.194,10.194,0,0,1-1.931,2.789c2.684-.77,5.536-1.546,8.226-.8,3.407.945,6.347,4.253,9.8,3.5,2.077-.461,3.535-2.3,5.4-3.325,3.5-1.884,7.718-.7,11.621-.093a4.562,4.562,0,0,0,2.538-.128,4.217,4.217,0,0,0,1.54-1.418,15.682,15.682,0,0,0,2.415-4.62A16.976,16.976,0,0,1,899.484,567.828Z" transform="translate(-859.26 -510.709)"/>
    </g>
  </g>
</svg>
