<svg id="Medical_History" data-name="Medical History" xmlns="http://www.w3.org/2000/svg" width="743.901" height="558" viewBox="0 0 743.901 558">
  <path id="Path_230" data-name="Path 230" d="M510.312,718.925l-8.434-2.431a110.49,110.49,0,0,1-3.824-11.851l3.961-.145-4.318-1.245c-1.25-4.983-1.763-8.361-1.763-8.361s17.1,5.094,29.986,15.036l1.589,11.15,1.52-8.573a44.689,44.689,0,0,1,3.958,3.985c12.4,14.258,17.8,29.866,12.054,34.862s-20.453-2.512-32.854-16.769a58.843,58.843,0,0,1-9.208-15.391Z" transform="translate(-217.789 -195.145)" fill="#e6e6e6"/>
  <path id="Path_231" data-name="Path 231" d="M853.356,658.026l4.807-18.96a246.228,246.228,0,0,1,26.121-9.371l.607,8.812,2.461-9.708c11.008-3.143,18.5-4.528,18.5-4.528s-10.116,38.466-31.332,67.874l-24.722,4.343L869,699.256a99.6,99.6,0,0,1-8.591,9.1c-30.864,28.649-65.241,41.793-76.783,29.358s4.122-45.739,34.986-74.387c9.568-8.881,21.588-16.009,33.62-21.618Z" transform="translate(-245.78 -188.182)" fill="#e6e6e6"/>
  <path id="Path_232" data-name="Path 232" d="M806.988,632.747,801.3,614.032a246.194,246.194,0,0,1,17.517-21.524l5.074,7.229-2.911-9.583c7.8-8.381,13.494-13.437,13.494-13.437s11.224,38.158,8.263,74.3l-18.918,16.5,17.872-7.557a99.6,99.6,0,0,1-2.648,12.234c-11.613,40.478-34.247,69.5-50.554,64.821s-20.114-41.285-8.5-81.763c3.6-12.549,10.205-24.863,17.606-35.884Z" transform="translate(-245.132 -183.494)" fill="#e6e6e6"/>
  <path id="Path_233" data-name="Path 233" d="M534.26,232l49.864,1.239,6.713-59.459H534.26Z" transform="translate(-52.675 -17.133)" fill="#2f2e41"/>
  <path id="Path_234" data-name="Path 234" d="M771.576,464.222l18.2,126.2s15.775,44.9,16.988,66.739l4.854,31.549-21.842,4.854-23.055-88.581-31.549-80.087,3.64,92.221,7.281,75.233-21.842,3.64L710.9,600.127l-14.561-70.379s-10.921-60.672,6.067-66.739Z" transform="translate(-237.208 -172.283)" fill="#2f2e41"/>
  <path id="Path_235" data-name="Path 235" d="M800.15,704.8l2.429,29.534s-25.992,15.027-17.652,17.94,19.755-.835,22.09-1.5c2.466-.7,7.069-1.814,10.552-2.639a7.739,7.739,0,0,0,5.99-6.97l.007-.109c.21-3.634-7.989-35.216-7.989-35.216Z" transform="translate(-246.12 -196.122)" fill="#2f2e41"/>
  <path id="Path_236" data-name="Path 236" d="M729.209,705.623l-2.046,28.241s-29.6,11-21.969,15.449,19.55,2.956,21.969,2.752c4.459-.375,15.555-.75,15.555-.75s2.051,1.776,2.952-1.751-1.2-35.036-1.2-35.036Z" transform="translate(-238.297 -196.203)" fill="#2f2e41"/>
  <circle id="Ellipse_32" data-name="Ellipse 32" cx="23.055" cy="23.055" r="23.055" transform="translate(485.832 143.9)" fill="#ffb8b8"/>
  <path id="Path_237" data-name="Path 237" d="M577.1,200.025l4.854,26.7-20.629,9.707-4.853-33.977Z" transform="translate(-54.865 -19.721)" fill="#ffb8b8"/>
  <path id="Path_238" data-name="Path 238" d="M764.256,479.58l-25.482,18.2s-10.921,27.909-19.415,23.055,9.707-29.122,9.707-29.122l20.628-20.628Z" transform="translate(-239.595 -173.079)" fill="#ffb8b8"/>
  <path id="Path_239" data-name="Path 239" d="M688.379,471.086l-2.427,14.561s6.067,30.336,13.348,24.269-2.427-25.482-2.427-25.482l1.213-12.134Z" transform="translate(-236.524 -173.079)" fill="#ffb8b8"/>
  <path id="Path_240" data-name="Path 240" d="M747.127,370.958l2.427-9.708,14.561-7.281,4.854,6.067,15.775,4.854-18.2,97.075s-61.885,3.64-63.1-6.067,12.134-36.4,12.134-36.4-3.64-13.348-2.427-20.628l4.854-29.122,19.415-6.067,4.434-5.364,4.06,6.578Z" transform="translate(-238.241 -161.532)" fill="#d0cde1"/>
  <path id="Path_241" data-name="Path 241" d="M785.359,368.513l3.64-2.427s7.281,1.213,9.707,10.921,0,53.391-6.067,61.885-23.055,33.976-23.055,33.976l-23.055-10.921L770.8,434.038l6.067-35.19Z" transform="translate(-242.496 -162.727)" fill="#d0cde1"/>
  <path id="Path_242" data-name="Path 242" d="M725.6,373.9l-9.708-2.427s-6.067,2.427-8.494,10.921-15.775,50.964-14.561,54.6-10.921,27.909-10.921,27.909l16.988,1.213,9.708-25.482,9.707-25.482Z" transform="translate(-236.126 -163.258)" fill="#d0cde1"/>
  <path id="Path_243" data-name="Path 243" d="M786.5,344.015c-4.862-2.67-7.125-8.663-7.286-14.208s1.183-11.032,1.289-16.578a12.82,12.82,0,0,0-.288-3.381A13,13,0,0,0,778.354,306c-6.323-9.688-17.314-16.5-28.891-16.611a12.83,12.83,0,0,0-4.889.9c-1.2.479-1.588.421-1.818,1.89a12.234,12.234,0,0,0-8.4.267,28.407,28.407,0,0,0-7.342,4.373,33.117,33.117,0,0,0-3.712,3.214c-6.118,6.338-7.527,16.106-5.755,24.735.576,2.805-2.189,5.514-4.476,7.237s-4.929,3.305-6.053,5.94c-1.081,2.534-.487,5.432-.7,8.179a13.989,13.989,0,0,1-8.924,11.753,4.305,4.305,0,0,0,4.154,1.461,10.223,10.223,0,0,0,4.328-2.061,25.746,25.746,0,0,0,9.6-14.241c.672,3.056.411,6.208.387,9.337a26.081,26.081,0,0,1-1.891,10.2,14.933,14.933,0,0,1-6.875,7.571c3,1.469,6.308.4,8.851-1.763s4.044-5.314,5.093-8.486a42.294,42.294,0,0,0,2.038-16.053,22.92,22.92,0,0,1,2.876,15.627,23.89,23.89,0,0,1-8.1,14.065,46.546,46.546,0,0,0,21.3-5.365,12.057,12.057,0,0,0,4.37-3.365c2.115-2.933,1.614-6.934,1.021-10.5-.469-2.821,3.056-6.9,1.037-8.924a3.346,3.346,0,0,0-2.244-.964,19.856,19.856,0,0,1-15.123-8.913,22.957,22.957,0,0,1-3.822-11.771,21.42,21.42,0,1,1,41.879,6.356,42.976,42.976,0,0,0-1.559,7.259,57.037,57.037,0,0,1-1.738,8.445c-1.527,5.318-4.114,10.744-8.9,13.517,1.609.88,3.47.92,5.293,1.121,6.007.662,12.325.516,17.762-2.122S786.886,350.046,786.5,344.015Z" transform="translate(-237.652 -155.165)" fill="#2f2e41"/>
  <path id="Path_244" data-name="Path 244" d="M776.143,321.362c-17.251-6.914-34.259-8.389-50.823,0V307.424a9.077,9.077,0,0,1,9.077-9.077h34.575a7.171,7.171,0,0,1,7.171,7.171Z" transform="translate(-240.405 -156.048)" fill="#2f2e41"/>
  <ellipse id="Ellipse_33" data-name="Ellipse 33" cx="2.543" cy="4.068" rx="2.543" ry="4.068" transform="translate(527.826 165.807)" fill="#ffb8b8"/>
  <rect id="Rectangle_94" data-name="Rectangle 94" width="468.731" height="1.803" transform="translate(275.169 556.197)" fill="#3f3d56"/>
  <path id="Path_245" data-name="Path 245" d="M123.153,0h-82.1L0,71.1l41.051,71.1h82.1L164.2,71.1Z" fill="#e6e6e6"/>
  <path id="Path_246" data-name="Path 246" d="M234.033,275.581h72.886l36.443-63.122-36.443-63.122H234.033L197.59,212.459Z" transform="translate(-188.374 -141.356)" fill="#fff"/>
  <path id="Path_247" data-name="Path 247" d="M123.153,215.04h-82.1L0,286.142l41.051,71.1h82.1l41.051-71.1Z" transform="translate(0 -21.202)" fill="#e6e6e6"/>
  <path id="Path_248" data-name="Path 248" d="M234.033,490.621h72.886L343.363,427.5l-36.443-63.122H234.033L197.59,427.5Z" transform="translate(-188.374 -162.558)" fill="#fff"/>
  <path id="Path_249" data-name="Path 249" d="M123.153,430.08h-82.1L0,501.182l41.051,71.1h82.1l41.051-71.1Z" transform="translate(0 -42.403)" fill="#e6e6e6"/>
  <path id="Path_250" data-name="Path 250" d="M234.033,705.661h72.887l36.443-63.122L306.92,579.417H234.033L197.59,642.539Z" transform="translate(-188.374 -183.76)" fill="#fff"/>
  <path id="Path_251" data-name="Path 251" d="M274.655,395.932a34.678,34.678,0,1,0,34.679,34.678A34.678,34.678,0,0,0,274.655,395.932Zm0,10.4a10.4,10.4,0,1,1-10.4,10.4A10.4,10.4,0,0,1,274.655,406.335Zm0,50.084a25.263,25.263,0,0,1-20.807-11.1c.167-6.936,13.871-10.754,20.807-10.754s20.64,3.818,20.807,10.754a25.305,25.305,0,0,1-20.807,11.1Z" transform="translate(-192.553 -165.669)" fill="#1ca680"/>
  <path id="Path_252" data-name="Path 252" d="M274.7,191.869a18.934,18.934,0,1,0-26.769,26.769l27.413,27.413,26.769-26.769A19.389,19.389,0,0,0,274.7,191.869Z" transform="translate(-192.759 -144.971)" fill="#1ca680"/>
  <path id="Path_253" data-name="Path 253" d="M297.531,624.727c0,11.833-21.426,37.811-21.426,37.811s-21.426-25.978-21.426-37.811a21.426,21.426,0,1,1,42.852,0Z" transform="translate(-194.003 -186.115)" fill="#1ca680"/>
  <circle id="Ellipse_34" data-name="Ellipse 34" cx="8.417" cy="8.417" r="8.417" transform="translate(73.685 430.196)" fill="#fff"/>
  <circle id="Ellipse_35" data-name="Ellipse 35" cx="8.417" cy="8.417" r="8.417" transform="translate(72.919 483.536)" fill="#1ca680"/>
</svg>
