<svg xmlns="http://www.w3.org/2000/svg" width="726.444" height="550" viewBox="0 0 726.444 550">
  <g id="Result" transform="translate(0 0)">
    <path id="Path_254" data-name="Path 254" d="M588.165,57.816,455.77,205.583A65.63,65.63,0,1,1,368.4,303.1L183.982,508.929a302.3,302.3,0,0,0,185.957,63.609c167.691,0,303.633-135.941,303.633-303.633A302.607,302.607,0,0,0,588.165,57.816Z" transform="translate(-112.472 -57.816)" fill="#f2f2f2"/>
    <circle id="Ellipse_37" data-name="Ellipse 37" cx="39.613" cy="39.613" r="39.613" transform="translate(265.702 163.389)" fill="#f2f2f2"/>
    <rect id="Rectangle_107" data-name="Rectangle 107" width="432.802" height="272.709" transform="translate(67.012 276.548)" fill="#3f3d56"/>
    <path id="Path_255" data-name="Path 255" d="M870.236,340.086v0Z" transform="translate(-300.754 -118.052)" fill="#2f2e41"/>
    <path id="Path_256" data-name="Path 256" d="M837.422,329.45s1.656,18.769-3.864,20.426,2.208,25.394,2.208,25.394l22.082,4.968,12.7-25.394-5.52-7.177s-9.385-12.7-4.968-21.53S837.422,329.45,837.422,329.45Z" transform="translate(-305.971 -137.028)" fill="#ffb9b9"/>
    <path id="Path_257" data-name="Path 257" d="M837.422,329.45s1.656,18.769-3.864,20.426,2.208,25.394,2.208,25.394l22.082,4.968,12.7-25.394-5.52-7.177s-9.385-12.7-4.968-21.53S837.422,329.45,837.422,329.45Z" transform="translate(-305.971 -137.028)" opacity="0.1"/>
    <circle id="Ellipse_38" data-name="Ellipse 38" cx="21.53" cy="21.53" r="21.53" transform="translate(517.65 158.195)" fill="#ffb9b9"/>
    <path id="Path_258" data-name="Path 258" d="M726.971,419.621s-13.249,9.937-9.385,17.665,15.457,34.227,15.457,34.227,2.208,20.426,11.593,19.321,0-21.53,0-21.53l-11.593-31.466,3.864-6.072Z" transform="translate(-271.701 -165.923)" fill="#ffb9b9"/>
    <path id="Path_259" data-name="Path 259" d="M958.232,424.345s14.905,11.593,6.072,16.009-46.372,25.394-46.372,25.394-22.634,17.113-25.394,3.864,14.905-12.7,14.905-12.7,35.331-21.53,36.987-25.946S958.232,424.345,958.232,424.345Z" transform="translate(-324.101 -167.334)" fill="#ffb9b9"/>
    <path id="Path_260" data-name="Path 260" d="M797.079,531.366s-7.177,39.2-3.312,61.277a109.266,109.266,0,0,1-1.1,41.4l21.53,2.208s13.8-81.7,21.53-81.15,24.29,82.254,24.29,82.254l23.186-3.312s-7.177-36.435-3.864-47.476,1.1-50.788-7.177-55.2S797.079,531.366,797.079,531.366Z" transform="translate(-294.334 -198.725)" fill="#575a89"/>
    <path id="Path_261" data-name="Path 261" d="M813.583,676.748s-24.842-8.281-27.05-2.208-1.656,73.974-1.1,78.39,2.208,2.208.552,4.416-1.656-2.76-1.1,3.312,1.1,7.176,1.1,7.176-9.937,23.186,7.729,22.634,9.385-17.113,9.385-17.113,2.76-4.968,1.1-7.729-2.208-7.177,0-9.385-2.208-6.625-2.76-8.281-2.208-1.1,2.208-6.625,2.208-8.281,1.656-9.937,3.864-11.593,3.864-11.593Z" transform="translate(-291.517 -241.427)" fill="#2f2e41"/>
    <path id="Path_262" data-name="Path 262" d="M886.365,676.748s24.842-8.281,27.05-2.208,1.656,73.974,1.1,78.39-2.208,2.208-.552,4.416,1.656-2.76,1.1,3.312-1.1,7.177-1.1,7.177,9.937,23.186-7.729,22.634-9.385-17.113-9.385-17.113-2.76-4.968-1.1-7.729,2.208-7.177,0-9.385,2.208-6.625,2.76-8.281,2.208-1.1-2.208-6.625-2.208-8.281-1.656-9.937-3.864-11.593-3.864-11.593Z" transform="translate(-322.343 -241.427)" fill="#2f2e41"/>
    <path id="Path_263" data-name="Path 263" d="M834.991,375.255s-3.864-11.593-6.072-13.8-3.641-7.922-3.641-7.922-12.368,4.61-15.681,5.714-14.353,1.1-14.353,2.76v35.331s-1.1,7.177,1.1,25.394,8.833,29.258,1.1,36.987-1.1,26.5,2.76,29.81,78.942,20.426,79.494-19.873c0,0-18.217-32.018-10.489-42.507s14.353-28.154,14.353-28.154V363.662s-12.145-3.864-16.009-4.416-13.249-11.041-14.353-10.489-3.238-.021-3.238-.021l-.075,7.75Z" transform="translate(-294.707 -144.742)" fill="#1ca680"/>
    <path id="Path_264" data-name="Path 264" d="M782.089,370.421l-7.729-2.76s-9.385,4.968-9.385,6.072-5.52,6.073-8.281,8.281-10.489,2.76-10.489,3.864-24.29,18.769-22.082,21.53,9.385,12.7,13.249,12.7,13.249-9.937,14.905-10.489,18.769-11.041,24.29-9.385S782.089,370.421,782.089,370.421Z" transform="translate(-273.824 -150.397)" fill="#1ca680"/>
    <path id="Path_265" data-name="Path 265" d="M906.831,372.231l10.489-2.208s19.874,14.905,20.426,15.457,31.466,20.426,29.81,24.29-19.321,9.385-23.738,7.729-23.186-15.457-30.362-13.8S906.831,372.231,906.831,372.231Z" transform="translate(-328.456 -151.103)" fill="#1ca680"/>
    <path id="Path_266" data-name="Path 266" d="M864.994,294.813c2.621-11.008,1.549-13.931,1.549-13.931l-33.55-8.293L821.307,283.9v11.686l1.18,3.646s4.852-3.646,2.967-8.924C825.454,290.307,863.109,302.73,864.994,294.813Z" transform="translate(-302.904 -121.99)" fill="#2f2e41"/>
    <ellipse id="Ellipse_39" data-name="Ellipse 39" cx="1.656" cy="3.588" rx="1.656" ry="3.588" transform="translate(516.822 172.824)" fill="#ffb9b9"/>
    <ellipse id="Ellipse_40" data-name="Ellipse 40" cx="1.656" cy="3.588" rx="1.656" ry="3.588" transform="translate(559.329 172.824)" fill="#ffb9b9"/>
    <path id="Path_268" data-name="Path 268" d="M372.285,659.67l-.991-.991,42.628-42.628-37.72-37.72.992-.992L415.9,616.05Z" transform="translate(-110.942 -172.508)" fill="#2f2e41"/>
    <circle id="Ellipse_41" data-name="Ellipse 41" cx="14.725" cy="14.725" r="14.725" transform="translate(286.791 429.167)" fill="#1ca680"/>
    <circle id="Ellipse_42" data-name="Ellipse 42" cx="14.725" cy="14.725" r="14.725" transform="translate(248.225 471.941)" fill="#1ca680"/>
    <path id="Path_269" data-name="Path 269" d="M376.285,543.67l-.992-.991,42.628-42.628-37.72-37.72.992-.992L419.9,500.05Z" transform="translate(-112.137 -137.848)" fill="#2f2e41"/>
    <circle id="Ellipse_43" data-name="Ellipse 43" cx="14.725" cy="14.725" r="14.725" transform="translate(253.835 309.262)" fill="#1ca680"/>
    <circle id="Ellipse_44" data-name="Ellipse 44" cx="14.725" cy="14.725" r="14.725" transform="translate(289.596 347.828)" fill="#1ca680"/>
    <circle id="Ellipse_45" data-name="Ellipse 45" cx="14.725" cy="14.725" r="14.725" transform="translate(251.03 390.601)" fill="#1ca680"/>
    <rect id="Rectangle_108" data-name="Rectangle 108" width="72.925" height="13.323" transform="translate(86.248 293.835)" fill="#1ca680" opacity="0.3"/>
    <rect id="Rectangle_109" data-name="Rectangle 109" width="72.925" height="3.506" transform="translate(377.246 444.594)" fill="#1ca680" opacity="0.3"/>
    <rect id="Rectangle_110" data-name="Rectangle 110" width="72.925" height="3.506" transform="translate(377.246 455.112)" fill="#1ca680" opacity="0.3"/>
    <rect id="Rectangle_111" data-name="Rectangle 111" width="72.925" height="3.506" transform="translate(377.246 465.63)" fill="#1ca680" opacity="0.3"/>
    <rect id="Rectangle_112" data-name="Rectangle 112" width="72.925" height="3.506" transform="translate(377.246 476.148)" fill="#1ca680" opacity="0.3"/>
    <rect id="Rectangle_113" data-name="Rectangle 113" width="72.925" height="3.506" transform="translate(377.246 486.666)" fill="#1ca680" opacity="0.3"/>
    <rect id="Rectangle_114" data-name="Rectangle 114" width="72.925" height="3.506" transform="translate(377.246 497.184)" fill="#1ca680" opacity="0.3"/>
    <path id="Path_270" data-name="Path 270" d="M148.134,785.508c4.848,17.921,21.454,29.021,21.454,29.021s8.746-17.957,3.9-35.879-21.454-29.021-21.454-29.021S143.286,767.587,148.134,785.508Z" transform="translate(-101.323 -264.529)" fill="#3f3d56"/>
    <path id="Path_271" data-name="Path 271" d="M144.751,789.323c13.3,12.95,14.928,32.858,14.928,32.858s-19.944-1.089-33.247-14.039S111.5,775.284,111.5,775.284,131.447,776.372,144.751,789.323Z" transform="translate(-90.816 -272.194)" fill="#1ca680"/>
    <rect id="Rectangle_115" data-name="Rectangle 115" width="726.444" height="1.402" transform="translate(0 548.371)" fill="#3f3d56"/>
    <path id="Path_272" data-name="Path 272" d="M1047.352,759.512a15.448,15.448,0,0,0-9.839-14.375,15.426,15.426,0,1,0-11.176,0,15.42,15.42,0,0,0,0,28.749,15.426,15.426,0,1,0,11.176,0A15.448,15.448,0,0,0,1047.352,759.512Zm-29.45-28.749a14.024,14.024,0,1,1,17.189,13.651,15.443,15.443,0,0,0-6.329,0A14.039,14.039,0,0,1,1017.9,730.763Zm28.048,57.5a14.024,14.024,0,1,1-17.188-13.651,15.442,15.442,0,0,0,6.329,0A14.039,14.039,0,0,1,1045.95,788.261Zm-10.859-15.1a15.443,15.443,0,0,0-6.329,0,14.009,14.009,0,0,1,0-27.3,15.444,15.444,0,0,0,6.329,0,14.009,14.009,0,0,1,0,27.3Z" transform="translate(-361.227 -254.281)" fill="#3f3d56"/>
    <path id="Path_273" data-name="Path 273" d="M181.926,401.191a15.426,15.426,0,1,1,15.426-15.426,15.426,15.426,0,0,1-15.426,15.426Zm0-29.45a14.024,14.024,0,1,0,14.024,14.024,14.024,14.024,0,0,0-14.024-14.024Z" transform="translate(-107.249 -151.197)" fill="#3f3d56"/>
    <path id="Path_274" data-name="Path 274" d="M648.926,182.191a15.426,15.426,0,1,1,15.426-15.426,15.426,15.426,0,0,1-15.426,15.426Zm0-29.45a14.024,14.024,0,1,0,14.024,14.024,14.024,14.024,0,0,0-14.024-14.024Z" transform="translate(-246.788 -85.76)" fill="#3f3d56"/>
  </g>
</svg>
