<svg xmlns="http://www.w3.org/2000/svg" xmlns:xlink="http://www.w3.org/1999/xlink" width="752.597" height="532.989" viewBox="0 0 752.597 532.989">
  <defs>
    <linearGradient id="linear-gradient" x1="0.5" y1="1" x2="0.5" gradientUnits="objectBoundingBox">
      <stop offset="0" stop-color="gray" stop-opacity="0.251"/>
      <stop offset="0.54" stop-color="gray" stop-opacity="0.122"/>
      <stop offset="1" stop-color="gray" stop-opacity="0.102"/>
    </linearGradient>
    <linearGradient id="linear-gradient-2" x1="0.5" y1="1" x2="0.5" y2="0" xlink:href="#linear-gradient"/>
  </defs>
  <g id="Symptoms" transform="translate(0.005 0.006)">
    <ellipse id="Ellipse_23" data-name="Ellipse 23" cx="66.349" cy="10.656" rx="66.349" ry="10.656" transform="translate(183.961 511.37)" fill="#1ca680" opacity="0.1"/>
    <ellipse id="Ellipse_24" data-name="Ellipse 24" cx="82.793" cy="10.656" rx="82.793" ry="10.656" transform="translate(528.181 511.67)" fill="#1ca680" opacity="0.1"/>
    <path id="Path_101" data-name="Path 101" d="M60.416,396.83h69.107v94.192H65.476c-.17.967-.334,1.941-.511,2.914h64.558V569.9c-.116-.034-.218-.075-.327-.116-1.825-.722-3.636-1.484-5.447-2.3l-1.158-.524q-2.724-1.287-5.447-2.724c-.633-.334-1.267-.681-1.893-1.035A113.319,113.319,0,0,1,88.1,541.982c-.232-.225-.449-.463-.681-.681-1.1-1.2-2.186-2.41-3.234-3.65l-1.158-1.362c-1.239-1.518-2.438-3.078-3.6-4.657-.17-.232-.334-.463-.511-.681A101.378,101.378,0,0,1,67.2,509.774c-.1-.225-.177-.47-.266-.681q-1.4-3.609-2.485-7.286c-.313-1.028-.613-2.043-.872-3.112-.1-.313-.177-.62-.252-.926C59.456,482.674,59,466.992,59,451.419v-5.447c0-6.3.075-12.638.184-18.97,0-1.641.068-3.275.1-4.923q.143-6.271.409-12.543c.041-1.164.1-2.322.157-3.479a19.709,19.709,0,0,1,.1-2C60.117,401.63,60.253,399.227,60.416,396.83Z" transform="translate(-50.839 -166.544)" fill="#1ca680" opacity="0.1"/>
    <path id="Path_102" data-name="Path 102" d="M144.807,220.36H106.9a287.358,287.358,0,0,1,20.162-27.754c5.631-6.918,11.576-13.659,17.745-20.155Z" transform="translate(-66.123 -94.95)" fill="#1ca680" opacity="0.1"/>
    <path id="Path_103" data-name="Path 103" d="M130.289,247.09v99.047H61.4c0-.286.048-.579.068-.865.061-.783.123-1.566.191-2.342.075-.912.157-1.832.245-2.724s.184-1.982.286-2.969.2-1.988.313-2.976.218-1.975.34-2.955.232-1.975.361-2.955c.1-.817.211-1.627.32-2.445.157-1.151.32-2.308.5-3.452a3.184,3.184,0,0,1,.075-.511,235.533,235.533,0,0,1,5.073-24.867,183.9,183.9,0,0,1,8.546-25.194,189.13,189.13,0,0,1,12.856-24.758Z" transform="translate(-51.605 -118.766)" fill="#1ca680" opacity="0.1"/>
    <path id="Path_104" data-name="Path 104" d="M186.8,288.909v94.2H334.4v-94.2Zm0,97.106v80.893c.844.177,1.682.347,2.513.49,1.13.218,2.254.415,3.4.586.218.034.443.068.681.089.449.075.912.136,1.362.2,1.137.157,2.267.286,3.4.388.538.055,1.083.1,1.627.143l1.314.1h0c.715.054,1.423.1,2.124.116.436,0,.872.041,1.321.054h4.855c.586,0,1.171,0,1.75-.054h.041a9.173,9.173,0,0,0,1.219-.055,2.854,2.854,0,0,0,.34,0,7.039,7.039,0,0,0,1.008-.048H214l2.281-.177c.749-.068,1.5-.157,2.267-.238l1.552-.184a135.812,135.812,0,0,0,18.691-3.977c13.768-3.84,27.237-9.213,41-13.149,17.792-5.073,37.451-7.565,54.644-1.362V386.015ZM334.4,184.04V58.635a189.753,189.753,0,0,0-47.957,5.624c-37.376,9.39-70.911,29.756-99.646,55.767v64.007h7.408v2.908H186.8V286H334.4V186.948H224.625V184.04Zm189.589-42.36a61.138,61.138,0,0,1-26.753-7.776c-15.9-8.648-28.6-22-42.789-33.27C424.966,77.163,388.4,63,350.888,59.486V184.04H561.6l.524-.552Zm19.2-3.4L563.54,160.61v-28.19c-6.816.844-12.788,2.853-20.326,5.829ZM563.54,487V386.015H520.172c-.116-.429-.232-.865-.368-1.3.129.436.238.872.361,1.3H350.916v73.029c1.607,1.192,3.194,2.445,4.766,3.718h0c1.7,1.362,3.371,2.8,5.052,4.208l1.7,1.4c.81.681,1.627,1.362,2.451,2q2.451,1.988,4.95,3.922c.824.681,1.668,1.294,2.506,1.934A341.293,341.293,0,0,0,414.3,503.678q4.923,2.724,9.935,5.318c2.227,1.137,4.467,2.267,6.714,3.364q5.066,2.472,10.214,4.766h0a375.078,375.078,0,0,0,99.415,28.96q11.433,1.689,22.954,2.656V486.989h.681ZM350.916,186.948V286H563.568V186.948Zm0,101.961v94.2H563.568v-94.2ZM580.073,132.3v31.445l25.977-28.5q-12.91-2.084-25.977-2.976Zm0,156.646v94.165H786.9v-94.2ZM786.147,494.472l.729-108.457h-206.8V549.824a370.9,370.9,0,0,0,39.97-.477h.232q9.533-.6,18.977-1.743h.143A349.476,349.476,0,0,0,736.9,521.587M826.785,304.42c-.776-1.832-1.586-3.65-2.41-5.447-1.539-3.4-3.166-6.714-4.841-10.023H803.395v94.158h40.8c-.021-26.665-6.768-53.9-17.391-78.721Zm-23.39,81.629v93.286a133.637,133.637,0,0,0,28.2-38.029c8.409-17.35,12.257-36.137,12.57-55.27Zm0-124.554v24.513h14.626a265.565,265.565,0,0,0-14.606-24.547ZM663.125,150.777c-1.076-.409-2.152-.824-3.234-1.226a295.261,295.261,0,0,0-34.938-10.5L585.2,182.678h0l-.763.81.511.558H726.43a302.61,302.61,0,0,0-63.285-33.3Zm67.452,36.2h-147.6l-2.9,2.656V286H786.93V239.324A294.7,294.7,0,0,0,730.6,186.948Z" transform="translate(-91.617 -58.63)" fill="#1ca680" opacity="0.1"/>
    <path id="Path_105" data-name="Path 105" d="M130.289,320.46v49.088H61.4c0-.286.048-.579.068-.865.061-.783.123-1.566.191-2.342.075-.912.157-1.832.245-2.724s.184-1.982.286-2.969.2-1.988.313-2.976.218-1.975.34-2.955.232-1.975.361-2.955c.1-.817.211-1.627.32-2.444.157-1.151.32-2.308.5-3.452a3.185,3.185,0,0,1,.075-.511,235.533,235.533,0,0,1,5.073-24.867Z" transform="translate(-51.605 -142.176)" fill="#1ca680" opacity="0.1"/>
    <path id="Path_106" data-name="Path 106" d="M60.416,396.83h69.107v94.192H65.476c-.17.967-.334,1.941-.511,2.914h64.558V569.9c-.116-.034-.218-.075-.327-.116-1.825-.722-3.636-1.484-5.447-2.3l-1.158-.524q-2.724-1.287-5.447-2.724c-.633-.334-1.267-.681-1.893-1.035A113.319,113.319,0,0,1,88.1,541.982c-.232-.225-.449-.463-.681-.681-1.1-1.2-2.186-2.41-3.234-3.65l-1.158-1.362c-1.239-1.518-2.438-3.078-3.6-4.657-.17-.232-.334-.463-.511-.681A101.378,101.378,0,0,1,67.2,509.774c-.1-.225-.177-.47-.266-.681q-1.4-3.609-2.485-7.286c-.313-1.028-.613-2.043-.872-3.112-.1-.313-.177-.62-.252-.926C59.456,482.674,59,466.992,59,451.419v-5.447c0-6.3.075-12.638.184-18.97,0-1.641.068-3.275.1-4.923q.143-6.271.409-12.543c.041-1.164.1-2.322.157-3.479a19.709,19.709,0,0,1,.1-2C60.117,401.63,60.253,399.227,60.416,396.83Z" transform="translate(-50.839 -166.544)" fill="#1ca680" opacity="0.1"/>
    <path id="Path_107" data-name="Path 107" d="M191.521,195.815v84.87H139.56v-84.87h7.408V167.08h30.41v28.735Z" transform="translate(-44.377 -53.314)" fill="#1ca680" opacity="0.1"/>
    <rect id="Rectangle_53" data-name="Rectangle 53" width="51.954" height="94.192" transform="translate(95.189 230.279)" fill="#1ca680" opacity="0.1"/>
    <path id="Path_108" data-name="Path 108" d="M186.8,539.44h51.961v78.306a135.586,135.586,0,0,1-18.691,3.97l-1.552.191c-.763.089-1.518.163-2.267.238s-1.525.129-2.281.177h-.238c-.327,0-.681.041-1,.048h-.347c-.409,0-.817.041-1.226.054h0c-.579.034-1.158.041-1.75.048h-4.821l-1.314-.048c-.681,0-1.416-.075-2.124-.123h0l-1.307-.1-1.627-.15c-1.144-.1-2.281-.232-3.4-.388l-1.362-.191-.681-.1c-1.137-.177-2.261-.368-3.4-.586-.838-.143-1.668-.32-2.513-.49Z" transform="translate(-91.617 -212.048)" fill="#1ca680" opacity="0.1"/>
    <rect id="Rectangle_54" data-name="Rectangle 54" width="42.844" height="94.886" transform="translate(429.107 132.478)" fill="#1ca680" opacity="0.1"/>
    <path id="Path_109" data-name="Path 109" d="M593.239,338.19v94.2H380.58V391.758H493.851v23.968h56.537V338.19Z" transform="translate(-121.282 -107.911)" fill="#1ca680" opacity="0.1"/>
    <path id="Path_110" data-name="Path 110" d="M641.153,639.825h-.681v61.794q-11.508-.974-22.947-2.649a375.1,375.1,0,0,1-99.455-29.021q-13.707-6.169-26.856-13.469a342.689,342.689,0,0,1-41.972-27.448q-5.012-3.84-9.894-7.858c-2.254-1.859-4.494-3.766-6.762-5.618-1.573-1.273-3.159-2.526-4.766-3.725v-73H597.063c-.116-.436-.232-.872-.354-1.3.129.429.252.865.368,1.3h43.4V639.784C640.7,639.791,640.928,639.811,641.153,639.825Z" transform="translate(-168.522 -211.439)" fill="#1ca680" opacity="0.1"/>
    <path id="Path_111" data-name="Path 111" d="M891.138,226.636H863.22v-8.675h12.515V192.12q1.627.592,3.241,1.219v24.622h12.161Z" transform="translate(-307.448 -101.226)" fill="#1ca680" opacity="0.1"/>
    <path id="Path_112" data-name="Path 112" d="M926.855,346.137H789.8l.048.034-.061-.034H764.36V251.25h7.2v70.135h32.923V279.849h27.2V247.09H859.6v32.786h27.2v41.536h40.059Z" transform="translate(-275.904 -118.766)" fill="#1ca680" opacity="0.1"/>
    <path id="Path_113" data-name="Path 113" d="M764.36,396.82v94.2h162.5v-94.2ZM970.965,601.9l.225-74.561H926.855V493.974H764.36V657.736a370.9,370.9,0,0,0,39.97-.477h.232q9.533-.6,18.977-1.743h.143A349.476,349.476,0,0,0,921.19,629.5" transform="translate(-275.904 -166.541)" fill="#1ca680" opacity="0.1"/>
    <path id="Path_114" data-name="Path 114" d="M1095.23,539.44h37.907c-.334,19.127-4.174,37.914-12.577,55.264a133.679,133.679,0,0,1-28.19,38.029V572.812h2.86Z" transform="translate(-380.565 -212.048)" fill="#1ca680" opacity="0.1"/>
    <path id="Path_115" data-name="Path 115" d="M1134.5,498.271H1096.57V419.55h20.523C1127.715,444.37,1134.463,471.606,1134.5,498.271Z" transform="translate(-381.905 -173.794)" fill="#1ca680" opacity="0.1"/>
    <rect id="Rectangle_55" data-name="Rectangle 55" width="22.954" height="29.749" transform="translate(449.003 158.857)" fill="#1ca680" opacity="0.1"/>
    <rect id="Rectangle_56" data-name="Rectangle 56" width="22.954" height="6.85" transform="translate(449.003 220.521)" fill="#1ca680" opacity="0.1"/>
    <rect id="Rectangle_57" data-name="Rectangle 57" width="22.954" height="19.985" transform="translate(449.003 230.279)" fill="#1ca680" opacity="0.1"/>
    <rect id="Rectangle_58" data-name="Rectangle 58" width="22.954" height="29.749" transform="translate(449.003 282.186)" fill="#1ca680" opacity="0.1"/>
    <rect id="Rectangle_59" data-name="Rectangle 59" width="22.954" height="29.749" transform="translate(449.003 343.85)" fill="#1ca680" opacity="0.1"/>
    <path id="Path_116" data-name="Path 116" d="M729.367,677a3.775,3.775,0,0,1,.681.041h-.681v6.911H706.42V654.17h22.947Z" transform="translate(-257.417 -248.656)" fill="#1ca680" opacity="0.1"/>
    <path id="Path_117" data-name="Path 117" d="M729.367,744.71v22.981q-11.508-.974-22.947-2.649V744.71Z" transform="translate(-257.417 -277.545)" fill="#1ca680" opacity="0.1"/>
    <rect id="Rectangle_60" data-name="Rectangle 60" width="98.373" height="2.186" transform="translate(259.298 322.292)" fill="#1ca680" opacity="0.1"/>
    <rect id="Rectangle_61" data-name="Rectangle 61" width="98.373" height="8.375" transform="translate(259.298 327.385)" fill="#1ca680" opacity="0.1"/>
    <rect id="Rectangle_62" data-name="Rectangle 62" width="98.373" height="13.469" transform="translate(259.298 363.215)" fill="#1ca680" opacity="0.1"/>
    <path id="Path_118" data-name="Path 118" d="M528.416,652.15v13.469H451.472q-5.012-3.827-9.9-7.858c-2.254-1.859-4.487-3.766-6.762-5.611Z" transform="translate(-170.752 -248.011)" fill="#1ca680" opacity="0.1"/>
    <path id="Path_119" data-name="Path 119" d="M555.892,712.23v13.455h-8.123q-13.693-6.176-26.849-13.475Z" transform="translate(-198.228 -267.175)" fill="#1ca680" opacity="0.1"/>
    <rect id="Rectangle_63" data-name="Rectangle 63" width="19.365" height="19.365" transform="translate(528.433 239.41)" fill="#1ca680" opacity="0.1"/>
    <rect id="Rectangle_64" data-name="Rectangle 64" width="19.365" height="19.365" transform="translate(109.135 149.181)" fill="#1ca680" opacity="0.1"/>
    <rect id="Rectangle_65" data-name="Rectangle 65" width="19.365" height="19.365" transform="translate(109.135 194.163)" fill="#1ca680" opacity="0.1"/>
    <rect id="Rectangle_66" data-name="Rectangle 66" width="19.365" height="19.365" transform="translate(109.135 239.144)" fill="#1ca680" opacity="0.1"/>
    <rect id="Rectangle_67" data-name="Rectangle 67" width="19.365" height="19.365" transform="translate(109.135 284.119)" fill="#1ca680" opacity="0.1"/>
    <rect id="Rectangle_68" data-name="Rectangle 68" width="19.365" height="19.365" transform="translate(109.135 329.101)" fill="#1ca680" opacity="0.1"/>
    <rect id="Rectangle_69" data-name="Rectangle 69" width="19.365" height="19.365" transform="translate(109.135 374.083)" fill="#1ca680" opacity="0.1"/>
    <rect id="Rectangle_70" data-name="Rectangle 70" width="19.365" height="19.365" transform="translate(602.36 239.41)" fill="#1ca680" opacity="0.1"/>
    <rect id="Rectangle_71" data-name="Rectangle 71" width="19.365" height="19.365" transform="translate(528.433 287.177)" fill="#1ca680" opacity="0.1"/>
    <rect id="Rectangle_72" data-name="Rectangle 72" width="19.365" height="19.365" transform="translate(602.36 287.177)" fill="#1ca680" opacity="0.1"/>
    <rect id="Rectangle_73" data-name="Rectangle 73" width="19.365" height="19.365" transform="translate(528.433 334.937)" fill="#1ca680" opacity="0.1"/>
    <rect id="Rectangle_74" data-name="Rectangle 74" width="19.365" height="19.365" transform="translate(602.36 334.937)" fill="#1ca680" opacity="0.1"/>
    <rect id="Rectangle_75" data-name="Rectangle 75" width="19.365" height="19.365" transform="translate(528.433 382.703)" fill="#1ca680" opacity="0.1"/>
    <rect id="Rectangle_76" data-name="Rectangle 76" width="19.365" height="19.365" transform="translate(602.36 382.703)" fill="#1ca680" opacity="0.1"/>
    <rect id="Rectangle_77" data-name="Rectangle 77" width="19.365" height="19.365" transform="translate(528.433 430.47)" fill="#1ca680" opacity="0.1"/>
    <rect id="Rectangle_78" data-name="Rectangle 78" width="19.365" height="19.365" transform="translate(602.36 430.47)" fill="#1ca680" opacity="0.1"/>
    <path id="Path_120" data-name="Path 120" d="M775.83,714.818V702.33h19.359v10.711Z" transform="translate(-247.397 -224.1)" fill="#1ca680" opacity="0.1"/>
    <path id="Path_121" data-name="Path 121" d="M65.24,357v11.079h66.274V357Zm6.6,10.384H66.438v-9.7h5.447Zm6.6,0H73v-9.7h5.447Zm6.585,0H79.58v-9.7h5.447Zm6.6,0H86.185v-9.7h5.447Zm6.591,0H92.77v-9.7h5.447Zm6.6,0H99.368v-9.7h5.447Zm6.6,0h-5.447v-9.7h5.447Zm6.591,0h-5.447v-9.7H118Zm6.591,0h-5.447v-9.7H124.6Zm6.591,0H125.74v-9.7h5.447Z" transform="translate(-52.83 -153.835)" fill="#1ca680" opacity="0.1"/>
    <path id="Path_122" data-name="Path 122" d="M65.24,404.34v11.079h66.274V404.34Zm6.6,10.377H66.438v-9.676h5.447Zm6.6,0H73v-9.676h5.447Zm6.585,0H79.58v-9.676h5.447Zm6.6,0H86.185v-9.676h5.447Zm6.591,0H92.77v-9.676h5.447Zm6.6,0H99.368v-9.676h5.447Zm6.6,0h-5.447v-9.676h5.447Zm6.591,0h-5.447v-9.676H118Zm6.591,0h-5.447v-9.676H124.6Zm6.591,0H125.74v-9.676h5.447Z" transform="translate(-52.83 -168.941)" fill="#1ca680" opacity="0.1"/>
    <path id="Path_123" data-name="Path 123" d="M65.24,451.7v11.1h66.274V451.7Zm6.6,10.377H66.438v-9.683h5.447Zm6.6,0H73v-9.683h5.447Zm6.585,0H79.58v-9.683h5.447Zm6.6,0H86.185v-9.683h5.447Zm6.591,0H92.77v-9.683h5.447Zm6.6,0H99.368v-9.683h5.447Zm6.6,0h-5.447v-9.683h5.447Zm6.591,0h-5.447v-9.683H118Zm6.591,0h-5.447v-9.683H124.6Zm6.591,0H125.74v-9.683h5.447Z" transform="translate(-52.83 -184.052)" fill="#1ca680" opacity="0.1"/>
    <path id="Path_124" data-name="Path 124" d="M65.24,499.06v11.065h66.274V499.06Zm6.6,10.377H66.438v-9.689h5.447Zm6.6,0H73v-9.689h5.447Zm6.585,0H79.58v-9.689h5.447Zm6.6,0H86.185v-9.689h5.447Zm6.591,0H92.77v-9.689h5.447Zm6.6,0H99.368v-9.689h5.447Zm6.6,0h-5.447v-9.689h5.447Zm6.591,0h-5.447v-9.689H118Zm6.591,0h-5.447v-9.689H124.6Zm6.591,0H125.74v-9.689h5.447Z" transform="translate(-52.83 -199.164)" fill="#1ca680" opacity="0.1"/>
    <path id="Path_125" data-name="Path 125" d="M65.66,546.41c.266,1.042.565,2.084.878,3.112V547.1h5.447v9.683H69.071c.089.225.177.47.266.681h62.311V546.41ZM78.6,556.787H73.15V547.1H78.6Zm6.585,0H79.735V547.1h5.447Zm6.6,0H86.319V547.1h5.447Zm6.591,0H92.924V547.1h5.447Zm6.6,0H99.522V547.1h5.447Zm6.6,0H106.12V547.1h5.447Zm6.591,0h-5.447V547.1h5.447Zm6.591,0H119.3V547.1h5.447Zm6.591,0h-5.447V547.1h5.447Z" transform="translate(-52.964 -214.272)" fill="#1ca680" opacity="0.1"/>
    <path id="Path_126" data-name="Path 126" d="M88.26,593.77c.17.218.334.463.511.681h3.6V599.1c.388.463.769.926,1.164,1.362v-6.04h5.447v9.717H96.778c.218.225.429.463.681.681h41.42V593.77Zm17.3,10.37h-5.447v-9.676h5.447Zm6.6,0h-5.447v-9.676h5.447Zm6.6,0h-5.447v-9.676h5.447Zm6.591,0H119.9v-9.676h5.447Zm6.591,0h-5.447v-9.676h5.447Zm6.591,0h-5.447v-9.676h5.447Z" transform="translate(-60.175 -229.384)" fill="#1ca680" opacity="0.1"/>
    <path id="Path_127" data-name="Path 127" d="M141.65,641.12c.62.354,1.253.681,1.893,1.035v-.34h5.447v3.064l1.158.538v-3.6H155.6v5.89a1.707,1.707,0,0,0,.327.123V641.12Z" transform="translate(-77.211 -244.492)" fill="#1ca680" opacity="0.1"/>
    <path id="Path_128" data-name="Path 128" d="M609,344.762ZM567.052,545.729ZM523.289,443.475c.129.436.238.872.361,1.3h0C523.541,444.346,523.425,443.911,523.289,443.475ZM609,344.741ZM197.72,242.78v2.908h30.417V242.78ZM567.052,545.729ZM523.289,443.475c.129.436.238.872.361,1.3h0C523.541,444.346,523.425,443.911,523.289,443.475ZM609,344.741ZM567.052,545.708ZM523.289,443.475c.129.436.238.872.361,1.3h0C523.541,444.346,523.425,443.911,523.289,443.475Z" transform="translate(-95.102 -117.39)" fill="#1ca680" opacity="0.1"/>
    <path id="Path_129" data-name="Path 129" d="M440.806,368.058s-2.683-.375-2.683-4.283-1.92-11.208-1.92-11.208h0c0-.034-1.661-12.713-3.956-14.728S427,323.988,427,323.988s-.5-6.421-1.532-7.8-2.417-4.766-4.467-9.594-10.6-8.171-10.6-8.171-15.45-8.961-19.828-11.882h0a6.716,6.716,0,0,1-1.11-.838c-.763-1-4.086-1.021-4.086-1.021a66.944,66.944,0,0,1-.79-6.993,5.321,5.321,0,0,0-.034-.735,23.56,23.56,0,0,0,10.357-12.815c.082-.259.15-.531.225-.79a2.213,2.213,0,0,0,1.328-1.2,24.987,24.987,0,0,1,.892-2.724,10.258,10.258,0,0,1,2.519-2.213c2.165-1.838,2.724-4.937,2.622-7.756-.068-2.281-.436-4.583-.293-6.85l.041-.572c.041-.34.089-.681.15-1.008.334-1.689,1.062-3.282,1.471-4.957a6.377,6.377,0,0,0-.5-5c-1.4-2.118-4.3-2.54-6.857-2.758-2.894-.245-5.481.075-7.334-2.329a26.142,26.142,0,0,0-2.914-3.52c-.381-.354-4.086-2.615-4.086-2.765a16.553,16.553,0,0,0-11.542-.885c-1.92.558-3.731,1.471-5.679,1.927-4.2.994-9.036-.082-12.6,2.322-1.988,1.362-3.18,3.527-4.3,5.638q-1.362,2.608-2.765,5.209a33.743,33.743,0,0,0-3.67,8.913,14.15,14.15,0,0,0-.245,2.084h0v1.11a3.662,3.662,0,0,0,.041.681c.041.211.034.279.054.422s.054.463.1.681.123.6.2.9c.034.129.082.252.123.375.068.232.15.456.238.681.048.116.1.238.15.354a6.371,6.371,0,0,0,.347.681c.054.1.1.184.15.272a9.035,9.035,0,0,0,.626.912c1.457,1.818,3.6,2.976,5.189,4.678v.763A23.308,23.308,0,0,0,359.2,276.44c0,.259.034.524.048.783a38.964,38.964,0,0,1-.075,6.067,2.86,2.86,0,0,0-2.261-1.008,3.26,3.26,0,0,0-.872.075l-.061-.048h0v.061c-1.5.368-3.343,1.927-5.107,6.36,0,0-5.366,6.047-9.451,5.795S327,300.817,327,300.817s-10.091,6.55-12.257,13.223a93.193,93.193,0,0,1-4.344,11.085l-12.475,25.7h0l-2.3,20.394s1.273,9.07,1.021,10.452,5.236,13.85,5.236,13.85,18.133,31.86,25.541,33.495l.531-.374a4.344,4.344,0,0,0,1,.374l1.525-1.076a16.623,16.623,0,0,1-.116,3.6c-1.021,3.146.381,23.676,2.165,27.7s1.151,56.789,1.151,56.789l-.252,4.658a1.975,1.975,0,0,0,.061.409l-.061,1.1.184.1a13.114,13.114,0,0,1-.184,4.433c-.64,2.043-.9,7.817-.9,7.817s-5.1,32.6-2.683,39.153,4.474,13.727,4.474,13.727,2.553,8.171.123,9.567-9.342,3.738-7.919,7.143c1.294,3.146,6.2,11.576,6.932,12.808l-.061.647-1,10.847a13.619,13.619,0,0,0,1.151,4.14c1.1,2.363,3.228,4.814,7.279,4.548.681-.048,1.471-.129,2.233-.232a96.514,96.514,0,0,0,16.546-4.3,6.747,6.747,0,0,1-1.294-1.069h0a3.738,3.738,0,0,1-1.137-2.724c.109-1.975-3.588-11.385-4.508-13.7-.143-.334-.218-.524-.218-.524s8.43-8.811,7.027-16.621c0,0-9.329-5.447-6.258-8.437s8.559-11.576,8.559-11.576.252-32.105,0-36.9a39.7,39.7,0,0,1,.47-9.962c.1-.5.225-.981.354-1.457a88.9,88.9,0,0,0,12.829.974c1.566,0,3.159,0,4.766-.1q0,.681.061,1.471c.354,7.953,1.015,21.9,1.552,27.08.763,7.429,4.978,27.448,4.978,27.448s-8.042,5.161,1.4,17.881c0,0,0,4.61-.626,5.277h0a57.726,57.726,0,0,0-1.614,6.646c-.395,2.4-.558,4.821.082,6.081,1.532,3.01,10.725,2.765,10.725,2.765h0l.225-.041a13.176,13.176,0,0,1,9.73,2.935c3.493,2.805,16.751,1.573,23.928.681,2.812-.354,4.692-.681,4.692-.681a2.724,2.724,0,0,0,.1-.981h0c-.075-1.764-1.457-5.631-10.827-9.083,0,0-8.811-5.924-8.689-11.085H414.7a9.61,9.61,0,0,1,1.219,0s-3.452-12.6-2.043-13.618-2.812-14.98-2.812-14.98-2.417-23.424-2.547-25.065a14.3,14.3,0,0,1,.633-4.154l-.633-12.842s-.123-4.269,0-5.659a28.263,28.263,0,0,0-.293-3.6c-.061-.477-.123-.974-.191-1.464,3.3-.838,5.447-1.614,5.447-1.614l-.381-44.7c2.805-5.447,3.323-17.4,3.309-25.875,0-5.447-.245-9.478-.245-9.478L420,437.58s.885-7.49-.517-9.131a1.572,1.572,0,0,1,.17-2.145,7.117,7.117,0,0,1,.837-.572s-.041-.061-.089-.15a6.765,6.765,0,0,1,.851-.606s-1.362-2.111-.143-3c1.144.776,2.165,1.362,2.942,1.839-.054.5-.109.783-.109.783l.327-.681c.749.422,1.205.681,1.205.681s6.006-11.964,5.876-13.727,4.086-9.192,4.086-9.192.511-3.9,2.812-5.536,1.784-13.475,1.784-13.475.64-6.169,2.172-8.689S440.806,368.058,440.806,368.058Zm-114.912-5.25.116,2.853-1.171-1.886Z" transform="translate(-126.34 -109.534)" fill="url(#linear-gradient)"/>
    <path id="Path_130" data-name="Path 130" d="M479.372,505.339,477.9,511.6s-11.78-6.013-13.9-13.652,3.554-10.541,3.554-10.541l10.976,4.651Z" transform="translate(-179.913 -195.446)" fill="#fff"/>
    <path id="Path_131" data-name="Path 131" d="M479.372,505.339,477.9,511.6s-11.78-6.013-13.9-13.652,3.554-10.541,3.554-10.541l10.976,4.651Z" transform="translate(-179.913 -195.446)" opacity="0.1"/>
    <path id="Path_132" data-name="Path 132" d="M377.221,815.226s-10.895,4-18.385,4.508c-3.977.266-6.067-2.172-7.143-4.521a13.686,13.686,0,0,1-1.124-4.12l.974-10.793.518-5.747,15.913-4.133,2.254,6.891.211.524c.906,2.3,4.535,11.664,4.426,13.618a3.718,3.718,0,0,0,1.117,2.69,6.475,6.475,0,0,0,1.239,1.083Z" transform="translate(-143.873 -292.13)" fill="#fff"/>
    <path id="Path_133" data-name="Path 133" d="M476.082,809.4a2.723,2.723,0,0,1-.1.974s-23.3,3.888-28.068,0a12.624,12.624,0,0,0-9.805-2.873s-9.015.245-10.52-2.724c-.626-1.246-.463-3.663-.075-6.047a57.613,57.613,0,0,1,1.58-6.612l.361-.286,2.145-1.723,25.112-.742h.191c-.123,5.134,8.525,11.024,8.525,11.024C474.618,803.8,475.973,807.646,476.082,809.4Z" transform="translate(-168.316 -291.795)" fill="#fff"/>
    <path id="Path_134" data-name="Path 134" d="M476.084,813.79a2.777,2.777,0,0,1-.1.974s-23.294,3.888-28.061,0a12.624,12.624,0,0,0-9.8-2.873s-9.022.245-10.52-2.724c-.626-1.253-.47-3.663-.082-6.047,3.473.347,8.954,1.212,11.106,3.275,3.255,3.139,8.77,6.271,12.154,6.516C453.43,813.082,469.275,813.586,476.084,813.79Z" transform="translate(-168.318 -296.183)" opacity="0.1"/>
    <path id="Path_135" data-name="Path 135" d="M377.751,826.359s-10.895,4-18.385,4.508c-3.977.266-6.067-2.172-7.136-4.528,2.771.933,6.619,1.913,8.641,1.015,2.4-1.062,10.895-1.75,15.661-2.043A6.706,6.706,0,0,0,377.751,826.359Z" transform="translate(-144.403 -303.263)" opacity="0.1"/>
    <path id="Path_136" data-name="Path 136" d="M404.962,333.855c-8.988-3.493-20.55-15.035-17.663-20.428a12.066,12.066,0,0,0,1.124-4.331,39.537,39.537,0,0,0,.082-6.128A83.927,83.927,0,0,0,387.3,293s28.061.633,26.427,4.766a15.453,15.453,0,0,0-.422,5.672c.129,2.356.47,5.018.824,7.272.49,3.091.981,5.447.981,5.447s-1.716,2.4-2.724,2.533S417.858,338.833,404.962,333.855Z" transform="translate(-155.448 -133.414)" fill="#cf6f80"/>
    <path id="Path_137" data-name="Path 137" d="M370.866,797.835l-.211.232c-8.389-10.146-18.535,2.5-18.535,2.5l-.15-.266.518-5.747L368.4,790.42l2.254,6.891Z" transform="translate(-144.32 -292.13)" opacity="0.1"/>
    <path id="Path_138" data-name="Path 138" d="M457.822,790.072s-6.128-.129-9.4,2.758-19.066.626-18.385,0a2.241,2.241,0,0,0,.354-1.035l2.145-1.723,25.112-.742C457.747,789.786,457.822,790.072,457.822,790.072Z" transform="translate(-169.223 -291.783)" opacity="0.1"/>
    <path id="Path_139" data-name="Path 139" d="M378.056,667.108a18.94,18.94,0,0,0-1.035,3.493,39.974,39.974,0,0,0-.47,9.914c.252,4.766,0,36.708,0,36.708s-5.386,8.518-8.389,11.521,6.128,8.4,6.128,8.4c1.362,7.763-6.891,16.533-6.891,16.533-8.389-10.146-18.535,2.506-18.535,2.506s-5.516-9.533-6.891-12.937,5.386-5.761,7.762-7.143-.116-9.533-.116-9.533-2.009-7.143-4.392-13.659,2.628-38.956,2.628-38.956.259-5.761.878-7.769a12.993,12.993,0,0,0,.184-4.412c-.041-.5-.089-.912-.123-1.192s-.061-.409-.061-.409l.1-.163,3.4-6.346S379.691,663.111,378.056,667.108Z" transform="translate(-141.072 -248.493)" fill="#1ca680"/>
    <path id="Path_140" data-name="Path 140" d="M454.373,749.154s-6.128-.129-9.4,2.724-19.066.626-18.385,0,.626-5.263.626-5.263c-9.267-12.652-1.362-17.786-1.362-17.786s-4.14-19.917-4.889-27.3c-.524-5.161-1.171-19.032-1.518-26.951-.15-3.4-.238-5.747-.238-5.747l7.572-1.525.974-.2,18.262-3.663s.5,3.4.844,6.19a28.937,28.937,0,0,1,.286,3.589c-.123,1.362,0,5.624,0,5.624l.62,12.781a14.516,14.516,0,0,0-.62,4.133c.123,1.627,2.5,24.929,2.5,24.929s4.133,13.9,2.724,14.905S454.373,749.154,454.373,749.154Z" transform="translate(-165.774 -251.614)" fill="#1ca680"/>
    <path id="Path_141" data-name="Path 141" d="M413.937,297.766a15.452,15.452,0,0,0-.422,5.672,23.322,23.322,0,0,1-24.8-.463A83.918,83.918,0,0,0,387.51,293S415.571,293.62,413.937,297.766Z" transform="translate(-155.66 -133.414)" opacity="0.1"/>
    <path id="Path_142" data-name="Path 142" d="M420.419,266.981a23.06,23.06,0,0,1-1.144,7.225,23.3,23.3,0,0,1-45.445-6.666v-.558a23.3,23.3,0,1,1,46.6,0Z" transform="translate(-151.295 -117.677)" fill="#cf6f80"/>
    <path id="Path_143" data-name="Path 143" d="M404.962,341.4c-8.988-3.493-20.55-15.035-17.663-20.428a12.066,12.066,0,0,0,1.124-4.331l12.3,10.112L408.339,333l5.788-14.735c.49,3.091.981,5.447.981,5.447s-1.716,2.4-2.724,2.533S417.858,346.376,404.962,341.4Z" transform="translate(-155.448 -140.957)" opacity="0.1"/>
    <path id="Path_144" data-name="Path 144" d="M385.585,326.95,375.31,499.564l-13.4.878-34.7-100.089L332.9,281.526l1.2-25.106,15.43,12.672,7.62,6.244,5.958-15.164,11.079,9.655Z" transform="translate(-104.252 -81.82)" fill="#1ca680"/>
    <path id="Path_145" data-name="Path 145" d="M381.314,667.134a18.947,18.947,0,0,0-1.035,3.493,98.735,98.735,0,0,1-28.095-8.777l-.184-.1.061-1.1.034-.572,3.4-6.346S382.948,663.137,381.314,667.134Z" transform="translate(-144.329 -248.519)" opacity="0.1"/>
    <path id="Path_146" data-name="Path 146" d="M426.919,675.574a68.946,68.946,0,0,1-7.531.858c-.15-3.4-.238-5.747-.238-5.747l7.572-1.525Z" transform="translate(-165.755 -253.439)" opacity="0.1"/>
    <path id="Path_147" data-name="Path 147" d="M450.807,669.68c-4.841,1.26-12.318,2.676-19.011,1.791l-.1-4.317,18.262-3.663S450.466,666.861,450.807,669.68Z" transform="translate(-169.76 -251.63)" opacity="0.1"/>
    <path id="Path_148" data-name="Path 148" d="M390.288,561.066c-27.918,4.766-53.486-8.9-53.486-8.9l.245-4.63s.633-52.492-1.124-56.517-3.125-24.431-2.131-27.564-3.629-50.1-3.629-50.1l-.749-19.066L302,383.182l12.257-25.548a92.2,92.2,0,0,0,4.263-11.031c2.131-6.632,12.025-13.149,12.025-13.149s10.146-6.51,14.156-6.264,9.267-5.761,9.267-5.761c3.881-9.894,7.395-5.413,7.395-5.413a8.84,8.84,0,0,1-.191,1.464c-1.362,10.861,22.021,45.179,22.355,45.785h0l2.227,54.242,2.254,68.644Z" transform="translate(-128.375 -140.435)" opacity="0.1"/>
    <path id="Path_149" data-name="Path 149" d="M389.179,561.047c-27.918,4.766-53.493-8.9-53.493-8.9l.252-4.63s.633-52.492-1.13-56.516-3.125-24.431-2.124-27.564-3.629-50.1-3.629-50.1l-.756-19.066L300.87,383.122l12.257-25.548a93.632,93.632,0,0,0,4.263-11.031c2.125-6.632,12.025-13.149,12.025-13.149s10.146-6.51,14.15-6.264,9.267-5.761,9.267-5.761c3.888-9.894,8.171-5.413,8.171-5.413,0,.47-.409.681-.191,1.464,3,10.534,21.272,45.179,21.606,45.785h0l2.254,54.242,2.254,68.644Z" transform="translate(-128.015 -140.416)" fill="#fff"/>
    <path id="Path_150" data-name="Path 150" d="M407.458,365.49c-3-1.253-18.909-19.413-18.909-19.413v-4.133c-.579-1.362-4.017-.531-6.809.422l1.2-25.106,1.362,1.13C387.283,328.917,407.111,364.884,407.458,365.49Z" transform="translate(-153.819 -141.155)" opacity="0.1"/>
    <path id="Path_151" data-name="Path 151" d="M408.565,363.28c-3.01-1.253-18.916-19.413-18.916-19.413v-4.133c-.579-1.362-4.017-.531-6.809.422l1.205-25.106,1.362,1.13C388.4,326.707,408.232,362.68,408.565,363.28Z" transform="translate(-154.17 -140.45)" fill="#fff"/>
    <path id="Path_152" data-name="Path 152" d="M352.392,517.952c.375,0,19.413-2,19.413-2s11.528,22.668,10.772,28.183-2.124,10.4-6.762,9.533-24.956.681-24.956.681Z" transform="translate(-143.965 -204.553)" opacity="0.1"/>
    <path id="Path_153" data-name="Path 153" d="M351.282,515.742c.375,0,19.413-2,19.413-2s11.521,22.675,10.772,28.183-2.131,10.4-6.762,9.533-24.956.681-24.956.681Z" transform="translate(-143.611 -203.848)" fill="#fff"/>
    <path id="Path_154" data-name="Path 154" d="M368.191,501.05s17.472,9.39,17.847,12.257-8.893-1.253-10.895-1.75a24.933,24.933,0,0,0-4.011-.626l-13.353.361Z" transform="translate(-146.173 -199.799)" fill="#cf6f80"/>
    <circle id="Ellipse_25" data-name="Ellipse 25" cx="1.838" cy="1.838" r="1.838" transform="translate(246.926 221.829)" opacity="0.1"/>
    <circle id="Ellipse_26" data-name="Ellipse 26" cx="1.838" cy="1.838" r="1.838" transform="translate(246.926 221.08)" fill="#3f3d56"/>
    <circle id="Ellipse_27" data-name="Ellipse 27" cx="1.838" cy="1.838" r="1.838" transform="translate(250.31 301.415)" opacity="0.1"/>
    <circle id="Ellipse_28" data-name="Ellipse 28" cx="1.838" cy="1.838" r="1.838" transform="translate(250.31 300.659)" fill="#3f3d56"/>
    <circle id="Ellipse_29" data-name="Ellipse 29" cx="1.838" cy="1.838" r="1.838" transform="translate(248.758 261.622)" opacity="0.1"/>
    <circle id="Ellipse_30" data-name="Ellipse 30" cx="1.838" cy="1.838" r="1.838" transform="translate(248.758 260.873)" fill="#3f3d56"/>
    <path id="Path_155" data-name="Path 155" d="M461.2,452.415s1.253,1.879,0,2.758.123,3,.123,3-3.125,1.832-1.75,3.479.5,9.09.5,9.09l-3.759,6.224s.225,4.011.238,9.431c0,8.457-.5,20.346-3.248,25.766l.381,44.471s-13.162,4.807-24.18,3.343l-1.634-71.361s2.383-40.467,3.262-48.23a80.813,80.813,0,0,0,.626-12.154s-.375-12.148-1.634-17.786c0,0-1.362-24.425-1.5-31.186-.061-3.234.109-12.672.3-21.647.211-9.812.449-19.066.449-19.066L426.9,318.887s2.485-.252,3.234.749a7.169,7.169,0,0,0,1.089.838h0c4.29,2.9,19.447,11.821,19.447,11.821s8.389,3.337,10.4,8.117,3.4,8.171,4.378,9.533,1.5,7.763,1.5,7.763,2.887,11.78,5.141,13.775,3.9,14.688,3.9,14.688L456.077,401.83s-1.75,26.052-2.124,27.06S461.2,452.415,461.2,452.415Z" transform="translate(-168.228 -141.665)" fill="#fff"/>
    <path id="Path_156" data-name="Path 156" d="M461.938,452.314s1.246,1.879,0,2.758.116,3,.116,3-3.105,1.852-1.743,3.5.5,9.09.5,9.09l-3.759,6.224s.225,4.011.245,9.431c0,8.457-.5,20.346-3.248,25.766l.374,44.471s-13.183,4.807-24.186,3.343l-1.627-71.361s2.383-40.467,3.262-48.23a80.057,80.057,0,0,0,.62-12.154s-.375-12.148-1.627-17.786c0,0-1.362-24.425-1.5-31.186-.061-3.234.116-12.672.3-21.646.211-9.812.449-19.066.449-19.066L426.83,318.54s3.282,0,4.038,1.015a6.459,6.459,0,0,0,1.089.838h0c4.29,2.9,19.454,11.821,19.454,11.821s8.382,3.337,10.391,8.117,3.4,8.171,4.385,9.533,1.5,7.762,1.5,7.762,2.887,11.78,5.141,13.775,3.881,14.66,3.881,14.66l-19.917,15.661s-1.75,26.052-2.131,27.06S461.938,452.314,461.938,452.314Z" transform="translate(-168.206 -141.564)" fill="#fff"/>
    <path id="Path_157" data-name="Path 157" d="M438.44,344.95l1.8,5.243-9.465,9.533c.211-9.805.449-19.066.449-19.066L427.94,320.73s3.282,0,4.038,1.015a6.212,6.212,0,0,0,1.089.831h0l8.048,23.219Z" transform="translate(-168.56 -142.262)" opacity="0.1"/>
    <path id="Path_158" data-name="Path 158" d="M437.33,342.74l1.8,5.243-9.465,9.533c.211-9.812.449-19.066.449-19.066L426.83,318.52s3.289,0,4.038,1.015a6.809,6.809,0,0,0,1.089.838h0l8.055,23.213Z" transform="translate(-168.206 -141.557)" fill="#fff"/>
    <path id="Path_159" data-name="Path 159" d="M420.419,266.981a23.062,23.062,0,0,1-1.144,7.225.974.974,0,0,1-.735-.184c-.177-6.128-3.194-11.882-6.9-16.778a17.63,17.63,0,0,0-3.745-3.881,7.327,7.327,0,0,0-5.08-1.437c-2.043.279-3.847,1.668-5.91,1.845-2.724.225-5.161-1.661-7.865-1.757a7.728,7.728,0,0,0-5.781,2.683,15.859,15.859,0,0,0-3.1,5.747,33.624,33.624,0,0,0-1.73,9.914c-.034,1.907-.218,4.3-1.988,4.991a10.173,10.173,0,0,0-2.567-7.769l-.041-.041v-.558a23.3,23.3,0,1,1,46.6,0Z" transform="translate(-151.295 -117.677)" opacity="0.1"/>
    <path id="Path_160" data-name="Path 160" d="M403.438,222.855a16.043,16.043,0,0,0-11.317-.885c-1.886.558-3.663,1.464-5.577,1.92-4.086.987-8.852-.082-12.359,2.308-1.947,1.362-3.119,3.514-4.208,5.6l-2.724,5.189a33.67,33.67,0,0,0-3.6,8.852c-.62,3.125-.245,6.625,1.736,9.138,1.444,1.832,3.575,2.982,5.141,4.705a10.214,10.214,0,0,1,2.56,7.763c1.777-.681,1.947-3.078,1.988-4.984a33.623,33.623,0,0,1,1.73-9.914,15.806,15.806,0,0,1,3.1-5.747,7.742,7.742,0,0,1,5.781-2.683c2.724.1,5.168,1.975,7.865,1.75,2.043-.17,3.854-1.566,5.91-1.839a7.3,7.3,0,0,1,5.08,1.437,17.445,17.445,0,0,1,3.738,3.881c3.718,4.9,6.734,10.636,6.911,16.778.769.565,1.879-.17,2.261-1.042a24.9,24.9,0,0,1,.878-2.724,10.043,10.043,0,0,1,2.465-2.193c2.125-1.832,2.656-4.916,2.574-7.715s-.626-5.638-.1-8.389c.32-1.689,1.042-3.268,1.437-4.937a6.455,6.455,0,0,0-.49-4.978c-1.362-2.111-4.229-2.526-6.728-2.724-2.839-.245-5.379.068-7.19-2.322a26.081,26.081,0,0,0-2.86-3.5C407.081,225.252,403.438,223,403.438,222.855Z" transform="translate(-147.96 -110.546)" fill="#512e4e"/>
    <path id="Path_161" data-name="Path 161" d="M309.129,428.285l-7.116-13.155-2.254,20.3s1.253,9.015,1,10.4S305.9,459.6,305.9,459.6s17.793,31.69,25.058,33.324L355.5,475.385l-6.51-8.266s-2.254-.878-2.819,0c0,0-12.086-20.8-13.339-22.3s-1.008-4.508-1.008-4.508-1.879-2-1.253-3.881-3.629-8.4-3.629-8.4l3.881-3.629Z" transform="translate(-127.661 -172.383)" opacity="0.1"/>
    <path id="Path_162" data-name="Path 162" d="M301.683,412.93l-1.879,1.5-2.254,20.3s1.253,9.015,1,10.4,5.141,13.775,5.141,13.775,17.786,31.69,25.051,33.324L353.3,474.683l-6.516-8.266s-2.254-.878-2.819,0c0,0-12.086-20.8-13.339-22.3s-1-4.508-1-4.508-1.879-2-1.253-3.881-3.636-8.4-3.636-8.4l3.881-3.629Z" transform="translate(-126.955 -171.682)" fill="#fff"/>
    <path id="Path_163" data-name="Path 163" d="M468.233,524.027c1.362,1.655.5,9.083.5,9.083l-3.759,6.224s.225,4.017.238,9.431L458.9,550.74a3.752,3.752,0,0,1-4.869-3.7l1.089-35.142,14.742,5.638c-1.253.872.123,3.01.123,3.01S466.858,522.373,468.233,524.027Z" transform="translate(-176.884 -203.261)" opacity="0.1"/>
    <path id="Path_164" data-name="Path 164" d="M469.34,522.92c1.362,1.655.5,9.09.5,9.09l-3.759,6.224s.225,4.011.245,9.431l-6.435,2.009a3.677,3.677,0,0,1-4.766-3.622l1.1-35.251,14.749,5.638c-1.26.872.116,3,.116,3S467.978,521.273,469.34,522.92Z" transform="translate(-177.235 -202.91)" fill="#fff"/>
    <path id="Path_165" data-name="Path 165" d="M477.644,501.431s-1,6.394-3.507,6.768-3.629,10.343-6.128,9.989-.844-9.267-.756-11-2.724-8.893-.62-10.52,8.763,0,8.763,0Z" transform="translate(-180.656 -198.171)" fill="#cf6f80"/>
    <path id="Path_166" data-name="Path 166" d="M481.771,427.223l4.726-9.533s1.879,7.265,1.879,11.147S491,433.1,491,433.1s2.88,3.4,1.362,5.883-2.131,8.648-2.131,8.648.5,11.773-1.757,13.4-2.724,5.515-2.724,5.515-4.14,7.388-4.011,9.145-5.761,13.653-5.761,13.653,2.88-14.783-13.9-21.17c0,0-.129-5.018,1.123-6.394s3.207-2,1.982-8.954-.354-15.259-.354-16.928,3.759-12.073,3.759-12.073Z" transform="translate(-179.452 -173.2)" opacity="0.1"/>
    <path id="Path_167" data-name="Path 167" d="M484.48,415.69l4.126,1.362s1.886,7.265,1.886,11.147,2.628,4.263,2.628,4.263,2.88,3.4,1.362,5.883-2.124,8.648-2.124,8.648.5,11.773-1.757,13.4-2.758,5.515-2.758,5.515-4.133,7.388-4,9.145-5.767,13.652-5.767,13.652,2.887-14.783-13.9-21.17c0,0-.123-5.018,1.13-6.394s3.207-2,1.982-8.954-.354-15.259-.354-16.928,3.759-12.073,3.759-12.073Z" transform="translate(-180.119 -172.562)" fill="#fff"/>
    <path id="Path_168" data-name="Path 168" d="M360.15,777.518s6.578-4.133,10.895-1.13S360.15,777.518,360.15,777.518Z" transform="translate(-146.93 -287.304)" opacity="0.1"/>
    <path id="Path_169" data-name="Path 169" d="M435.21,759.773a13.315,13.315,0,0,1,10.711,4.515C450.81,769.551,435.21,759.773,435.21,759.773Z" transform="translate(-170.88 -282.34)" opacity="0.1"/>
    <g id="Group_6" data-name="Group 6" transform="translate(215.423 125.744)" opacity="0.1">
      <path id="Path_170" data-name="Path 170" d="M425.372,268.606a10.1,10.1,0,0,0-2.472,2.2,24.92,24.92,0,0,0-.872,2.724c-.381.885-1.491,1.607-2.261,1.049-.177-6.128-3.2-11.882-6.911-16.785a17.445,17.445,0,0,0-3.738-3.881,7.32,7.32,0,0,0-5.086-1.437c-2.043.279-3.84,1.668-5.9,1.838-2.724.232-5.168-1.655-7.871-1.75a7.708,7.708,0,0,0-5.774,2.69,15.77,15.77,0,0,0-3.1,5.74,33.664,33.664,0,0,0-1.73,9.914c-.041,1.9-.218,4.269-1.975,4.978a9.325,9.325,0,0,1,0,1.512c1.77-.681,1.947-3.078,1.988-4.984a33.623,33.623,0,0,1,1.73-9.914,15.8,15.8,0,0,1,3.1-5.747,7.729,7.729,0,0,1,5.774-2.683c2.724.1,5.175,1.975,7.871,1.75,2.043-.17,3.854-1.566,5.9-1.838a7.32,7.32,0,0,1,5.086,1.437,17.445,17.445,0,0,1,3.738,3.881c3.711,4.9,6.734,10.636,6.911,16.778.769.565,1.879-.17,2.261-1.042a26.42,26.42,0,0,1,.872-2.724,10.076,10.076,0,0,1,2.472-2.193c2.124-1.832,2.656-4.916,2.574-7.715v-.259C427.83,264.568,427.183,267.04,425.372,268.606Z" transform="translate(-367.946 -246.217)"/>
      <path id="Path_171" data-name="Path 171" d="M370.545,270.655c-1.566-1.723-3.7-2.873-5.141-4.7a9.968,9.968,0,0,1-1.982-5.577,10.486,10.486,0,0,0,1.982,7.075c1.437,1.832,3.575,2.982,5.141,4.705a10.214,10.214,0,0,1,2.567,6.074,10.214,10.214,0,0,0-2.567-7.579Z" transform="translate(-363.385 -248.75)"/>
      <path id="Path_172" data-name="Path 172" d="M452.687,244.648c-.4,1.668-1.117,3.255-1.444,4.937a15.726,15.726,0,0,0-.211,3.4,13.221,13.221,0,0,1,.211-1.934c.327-1.689,1.042-3.268,1.444-4.937a8.375,8.375,0,0,0,.225-2.819A9.462,9.462,0,0,1,452.687,244.648Z" transform="translate(-391.345 -243.3)"/>
    </g>
    <ellipse id="Ellipse_31" data-name="Ellipse 31" cx="66.349" cy="10.656" rx="66.349" ry="10.656" transform="translate(24.183 496.587)" fill="#1ca680" opacity="0.1"/>
    <rect id="Rectangle_79" data-name="Rectangle 79" width="4.269" height="96.126" transform="translate(88.401 303.103)" fill="#535461"/>
    <path id="Path_173" data-name="Path 173" d="M195.368,641.453l-.266,4.331-.381,6.128-.157,2.547-.375,6.128-.163,2.547-.381,6.128-4.3,69.5a11.78,11.78,0,0,1-11.753,11.045H155.214a11.773,11.773,0,0,1-11.746-11.045l-4.283-69.549-.381-6.128-.157-2.547-.381-6.128-.157-2.547-.381-6.128-.272-4.331a6.128,6.128,0,0,1,6.128-6.476h45.765a6.088,6.088,0,0,1,6.019,6.523Z" transform="translate(-75.869 -242.517)" fill="#3f3d56"/>
    <path id="Path_174" data-name="Path 174" d="M147.982,592.24l-.381,6.108H90.961l-.381-6.108Z" transform="translate(-28.749 -188.973)" fill="#9d9cb5"/>
    <path id="Path_175" data-name="Path 175" d="M147.7,604.95l-.375,6.115H91.751l-.381-6.115Z" transform="translate(-29.001 -193.029)" fill="#9d9cb5"/>
    <path id="Path_176" data-name="Path 176" d="M147.41,617.68l-.374,6.108H92.541l-.381-6.108Z" transform="translate(-29.253 -197.09)" fill="#9d9cb5"/>
    <path id="Path_177" data-name="Path 177" d="M102.564,547.771C127.425,565.761,137.8,593.9,137.8,593.9s-29.961-1.028-54.828-19.018S47.75,528.76,47.75,528.76,77.7,529.781,102.564,547.771Z" transform="translate(-47.25 -208.64)" fill="#1ca680"/>
    <path id="Path_178" data-name="Path 178" d="M47.72,528.76s31.1,17.261,41.08,31.554S137.792,593.9,137.792,593.9" transform="translate(-47.24 -208.64)" fill="none" stroke="#535461" stroke-miterlimit="10" stroke-width="2"/>
    <path id="Path_179" data-name="Path 179" d="M137.838,498.61c13.53,9.785,19.188,25.1,19.188,25.1s-16.308-.558-29.845-10.343S108,488.26,108,488.26,124.3,488.818,137.838,498.61Z" transform="translate(-66.474 -195.718)" fill="#1ca680"/>
    <path id="Path_180" data-name="Path 180" d="M108,488.26s16.928,9.4,22.355,17.173,26.672,18.276,26.672,18.276" transform="translate(-66.474 -195.718)" fill="none" stroke="#535461" stroke-miterlimit="10" stroke-width="2"/>
    <path id="Path_181" data-name="Path 181" d="M200.024,528.65c-15.545,17.084-18.834,39.412-18.834,39.412s21.919-5.379,37.451-22.47,18.834-39.412,18.834-39.412S215.57,511.566,200.024,528.65Z" transform="translate(-89.827 -201.436)" fill="#1ca680"/>
    <path id="Path_182" data-name="Path 182" d="M237.489,506.19s-20.251,17.513-25.4,29.579-30.9,32.3-30.9,32.3" transform="translate(-89.827 -201.439)" fill="none" stroke="#535461" stroke-miterlimit="10" stroke-width="2"/>
    <path id="Path_183" data-name="Path 183" d="M975.3,445.265s-11.242-55.931-6.938-62.89c0,0,.157-6.469-.1-14.715v-.947a20.932,20.932,0,0,0,2.363,1.362,19.12,19.12,0,0,0,12.869,1.661l-3.4-3.793a6.286,6.286,0,0,1-1.845-3.085,6.463,6.463,0,0,1,.735-3.336c3.234-8.171,3.4-18.446-2.826-24.683-5.264-5.243-6.544-12.011-12.257-16.8-4.174-3.507-6.469-8.648-8.634-13.618a76.59,76.59,0,0,1-4.726-12.89c-.817-3.479-1.144-7.082-2.268-10.479s-3.228-6.7-6.516-8.219a24.593,24.593,0,0,1-3.541-1.559c-1.4-.946-2.247-2.485-3.262-3.834-5.155-6.809-22.416-2.8-30.587-.034a17.207,17.207,0,0,0-6.047,3.35l.075-.123c.061-.1.136-.2.2-.306a10.748,10.748,0,0,0-2.288,2.553c-1.192,1.886-1.689,4.086-2.683,6.128-1.2,2.417-7.865,9.165-5,11.882a2.414,2.414,0,0,0,.681.436,5.89,5.89,0,0,0,3.4.34l-.123.293a19.9,19.9,0,0,0-1.478,7.551,20.437,20.437,0,0,0,20.618,20.257,20.815,20.815,0,0,0,6.312-.974c.048.259.089.518.136.776a2.376,2.376,0,0,0,.048.306h0l-.361.5a.684.684,0,0,0-.061-.089l-10.691,14.939c-1.634,1.151-11.044,7.96-11.576,13.067-.558,5.59-1.117,12.134-1.117,12.134l-.075,1.4a4.208,4.208,0,0,1-3.4.919c-3.337-.545-3.337,12.257-3.337,12.257s-2.22,2.043-3.745.272-5.556,4.229-5.556,4.229L853.037,380.6h0l-.579.034-1.362-4.215a1.777,1.777,0,0,0-2.227-1.137,2.046,2.046,0,0,0-.306.129l-.1.055-.177.123-.089.082a1.371,1.371,0,0,0-.136.143l-.082.1-.041.041h0a1.716,1.716,0,0,0-.245,1.525l1.171,3.616c-4.875.981-9.86,3.745-5.795,11.358l-20.6-3.806,6.666,5.6,34.414,7.1c-.456.817-.157,2,1.266,3.67,6.128,7.2,17.3,9.152,21.79,9.655a38.681,38.681,0,0,0,4.419,7.49l-.388,7.17s-11.378,54.651-13.462,57.422a32.388,32.388,0,0,0,2.88-3.793c-3.3,11.228-7.919,26.6-9.131,28.9-1.947,3.677-3.752,18.555-1.532,19.508.681.293,2.628.15,5.406-.061v1.232l-.123,46.7s.558,28.646-.974,31.377-1.941,8.457-1.941,8.457-6.128,11.3-10.983,15.838a.739.739,0,0,1-.109.1l-.15-1.062s-5.836,7.368-18.746,6.952c0,0-7.769,5.052,3.752,5.325s26.236-.409,26.236-.409,10.275-15.661,18.882-13.618v11.868h2.635V632.008a10.806,10.806,0,0,0,4.692-7.1,8.634,8.634,0,0,0-3.078-7.987,5.107,5.107,0,0,1-1.682-3.731l-.1.082a7.2,7.2,0,0,0-.089-.735c-.756-6.128-1.7-18.773,1.641-28.129,4.583-12.829,5.972-30.7,2.635-41.332a95.028,95.028,0,0,1-2.649-10.357c-.082-.443-.157-.865-.225-1.26a53.685,53.685,0,0,1,6.762,1.362c7.728,2.131,24.636,2.526,39.071,2.41.034.395.075.81.123,1.226a44.608,44.608,0,0,0,1.607,8.525c1.811,5.447,2.642,29.464,2.642,29.464s2.336,19.747,1.062,27.782c-.681,4.467-1.362,8.954-1.75,13.462v.089s-3.827,10.895-6.625,16.812c-.068.15-.143.3-.211.443a8.852,8.852,0,0,0-2.186.483s-3.752,7.49-7.49,8.729-2.5,5.318,5.965,3.82,21.245-2.724,21.245-2.724l.552-7.64,2.6-3.255-.681,7.62,2.771-.545-.368-9.267,4.256-5.325s5.141-4.576-2.5-13.578v.2c-.082-.129-.157-.266-.245-.395v-.041c-1.267-1.961-2.274-5.618-.429-12.107,3.337-11.725,5.277-22.368,5.277-22.368s7.449-28.51-1.5-42h.395a22.69,22.69,0,0,1-1.927-5.992q-.068-.368-.123-.756c6.625-.381,13.128-1.58,18.432-4.167C981.132,523.694,977.938,456.037,975.3,445.265Zm-84.114-47.188v.136l-1.362.068Zm-4.671.647a1.506,1.506,0,0,0-.613.293,6.046,6.046,0,0,0-1.069,2.8l-2.125-.477s-1.491-.32-3.636-.681l-1.015-1.021C880.845,399.405,883.746,399.065,886.511,398.724Z" transform="translate(-294.446 -124.063)" fill="url(#linear-gradient-2)"/>
    <path id="Path_184" data-name="Path 184" d="M972.13,742.892l-.81,9.649,2.717-.545-.409-10.466Z" transform="translate(-309.774 -236.608)" fill="#1d2366"/>
    <path id="Path_185" data-name="Path 185" d="M911.36,707.813c-3.275,9.329-2.349,21.919-1.614,28.034.272,2.261.524,3.636.524,3.636s-4.9,11.154-5.3,11.576-14.408,8.968-14.408,8.968l-9.785,5.713s-9.928-4.351-5.168-5.849a7.226,7.226,0,0,0,2.567-1.75c4.766-4.528,10.752-15.784,10.752-15.784s.409-5.713,1.907-8.43.953-31.268.953-31.268l.116-46.541V650.05l18.623.136a42.153,42.153,0,0,0,.8,6.128,93.691,93.691,0,0,0,2.594,10.323C917.2,677.253,915.84,695.032,911.36,707.813Z" transform="translate(-310.988 -247.341)" fill="#ffb0b1"/>
    <path id="Path_186" data-name="Path 186" d="M910.271,779.693s-4.9,11.154-5.3,11.576-14.408,8.968-14.408,8.968l-9.785,5.713s-9.928-4.351-5.168-5.849a7.226,7.226,0,0,0,2.567-1.75l.422,2.976,3.262-.136,27.918-25.119C910.019,778.317,910.271,779.693,910.271,779.693Z" transform="translate(-310.988 -287.552)" opacity="0.1"/>
    <path id="Path_187" data-name="Path 187" d="M901.825,777l-28.074,25.289-3.262.136-.681-4.766s-5.706,7.34-18.385,6.932c0,0-7.613,5.032,3.67,5.3s25.691-.409,25.691-.409,10.064-15.661,18.487-13.618V807.7h2.588V795.759a10.752,10.752,0,0,0,4.589-7.082,8.675,8.675,0,0,0-3-7.953A5.127,5.127,0,0,1,901.825,777Z" transform="translate(-302.883 -287.848)" fill="#1d2366"/>
    <path id="Path_188" data-name="Path 188" d="M1011.7,722.119c-1.811,6.469-.824,10.112.415,12.066v.041a22.3,22.3,0,0,1,3.255,7.946l.109.613-12.774,18.623-6.932,2.724s-11.147-3.806-9.111-4.9c.511-.266,1.307-1.682,2.22-3.636,2.724-5.89,6.482-16.757,6.482-16.757v-.089c.4-4.487,1.021-8.961,1.716-13.414,1.246-8.014-1.042-27.686-1.042-27.686s-.817-23.921-2.588-29.361a44.9,44.9,0,0,1-1.587-8.471c-.368-3.4-.449-6.21-.449-6.21s7.34-10.214,20.8.817a14.8,14.8,0,0,1,2.812,3.051c9.295,13.223,1.811,42.353,1.811,42.353S1014.963,710.428,1011.7,722.119Z" transform="translate(-346.757 -247.104)" fill="#ffb0b1"/>
    <path id="Path_189" data-name="Path 189" d="M1015.51,782.483l-12.774,18.623L995.8,803.83s-11.147-3.806-9.111-4.9c.511-.266,1.307-1.682,2.22-3.636,4.719-.041,7.163,4.453,7.163,4.453l5.979-.953s7.885-15.5,9.656-16.444.272-7.075.272-7.075V773.72c.048.055.089.116.143.17v.041a22.3,22.3,0,0,1,3.255,7.946Z" transform="translate(-346.767 -286.802)" opacity="0.1"/>
    <path id="Path_190" data-name="Path 190" d="M992.179,800.339s-3.4-6.251-9.928-3.943c0,0-3.67,7.49-7.34,8.7s-2.445,5.3,5.849,3.806,20.8-2.724,20.8-2.724l.545-7.62,8.43-10.738s5.025-4.555-2.451-13.523v1.559s1.5,6.128-.272,7.075-9.628,16.451-9.628,16.451Z" transform="translate(-342.461 -286.987)" fill="#1d2366"/>
    <path id="Path_191" data-name="Path 191" d="M918.784,650.166a42.152,42.152,0,0,0,.8,6.128,85.424,85.424,0,0,0-19.447-.2V650.03Z" transform="translate(-319.229 -247.335)" opacity="0.1"/>
    <path id="Path_192" data-name="Path 192" d="M1018.136,659.172s-10.895.531-23.887.64c-.368-3.4-.449-6.21-.449-6.21s7.34-10.214,20.8.817a14.805,14.805,0,0,1,2.812,3.05,16.626,16.626,0,0,0,.729,1.7Z" transform="translate(-349.114 -247.101)" opacity="0.1"/>
    <path id="Path_193" data-name="Path 193" d="M985.306,602.055s-47.719,2.308-62.263-1.77-28.96-.545-31.132-1.491-.408-15.77,1.5-19.44,12.366-40.787,12.366-40.787l10.064-52.472,10.6-2.921.749-.211,18.473-5.093L959.2,474.13s26.917,105.087,24.609,112.836a19.843,19.843,0,0,0-.395,9.117A22.762,22.762,0,0,0,985.306,602.055Z" transform="translate(-316.284 -191.209)" fill="#1d2366"/>
    <path id="Path_194" data-name="Path 194" d="M873.649,439s-9.533,10.214-2.315,15.906,11.964.545,11.964.545Z" transform="translate(-309.176 -180)" fill="#c7daf5"/>
    <path id="Path_195" data-name="Path 195" d="M873.649,439s-9.533,10.214-2.315,15.906,11.964.545,11.964.545Z" transform="translate(-309.176 -180)" opacity="0.1"/>
    <path id="Path_196" data-name="Path 196" d="M979.554,331.656s-1.117,1.062-2.8,2.628c-2.4,2.24-5.944,5.515-9.09,8.26-4.358,3.793-7.953,6.578-6.666,4.2s1.042-6.516.4-10.391c-.048-.259-.089-.517-.136-.769a71.36,71.36,0,0,0-2.1-8.416s7.041-9.1,10.936-12.686c1.45-1.362,2.465-1.92,2.526-.974a31.635,31.635,0,0,0,2.206,7.068c.034.1.068.184.109.279.79,2.043,1.682,4.14,2.465,5.951C978.6,329.586,979.554,331.656,979.554,331.656Z" transform="translate(-338.061 -139.808)" fill="#ffb0b1"/>
    <path id="Path_197" data-name="Path 197" d="M974.937,320.86a20.21,20.21,0,0,1-13.537,15.5,70.86,70.86,0,0,0-2.24-9.186s13.258-17.125,13.462-13.659C972.669,314.827,973.7,317.742,974.937,320.86Z" transform="translate(-338.061 -139.812)" opacity="0.1"/>
    <path id="Path_198" data-name="Path 198" d="M948.564,352.867l1.716-2.417s1.137,6.932,5.318,3.874,4.385,23.008,4.385,23.008L955.5,444.424l-32.425-1.941.919-32.419,3.67-16.342,9.077-23.757,5.4-7.851Z" transform="translate(-326.545 -151.745)" opacity="0.1"/>
    <path id="Path_199" data-name="Path 199" d="M959.992,377.927l-4.086,60.663-.429,6.428L937.4,443.935l-.681-.041-13.618-.817.919-32.425,3.67-16.342,9.077-23.757,5.4-7.851,6.428-9.281,1.716-2.41s1.137,6.932,5.318,3.874l.089-.061h0C959.8,352.236,959.992,377.927,959.992,377.927Z" transform="translate(-326.555 -151.924)" fill="#1d2366"/>
    <path id="Path_200" data-name="Path 200" d="M910.82,406.26s-1.627,3.4-4.9,2.853-3.262,12.257-3.262,12.257-2.172,2.043-3.67.272-5.447,4.215-5.447,4.215L868.8,426.946s11.01,5.032,8.852,20.257c0,0,37.383-2.315,38.608-5.849S910.82,406.26,910.82,406.26Z" transform="translate(-309.229 -169.553)" fill="#fff"/>
    <path id="Path_201" data-name="Path 201" d="M910.82,406.26s-1.627,3.4-4.9,2.853-3.262,12.257-3.262,12.257-2.172,2.043-3.67.272-5.447,4.215-5.447,4.215L868.8,426.946s11.01,5.032,8.852,20.257c0,0,37.383-2.315,38.608-5.849S910.82,406.26,910.82,406.26Z" transform="translate(-309.229 -169.553)" opacity="0.03"/>
    <path id="Path_202" data-name="Path 202" d="M777.66,389.76l6.523,5.57,53.7,11.283-6.659-6.8Z" transform="translate(-247.981 -124.366)" fill="#fff"/>
    <path id="Path_203" data-name="Path 203" d="M942.444,354.167c-.892,1.362-3.446,8.334-5.577,14.422-1.777,5.073-3.262,9.533-3.262,9.533s-3.466,22.566-5.236,26.644-.81,19.985-.81,19.985l-6.6,39.282s-2.989,20.257-7.606,32.357c-4.555,11.909-9.628,17.493-9.785,17.67,2.043-2.765,13.176-57.2,13.176-57.2l3.677-68.651s.538-6.523,1.083-12.1,11.576-13.189,11.576-13.189L943.717,347.8C944.786,349.23,944.071,351.722,942.444,354.167Z" transform="translate(-320.323 -150.9)" fill="#fff"/>
    <path id="Path_204" data-name="Path 204" d="M908.368,479.664s-15.661-.681-23.247-9.792,17.534-3.636,17.534-3.636l6.53,1.5Z" transform="translate(-313.981 -188.17)" fill="#ffb0b1"/>
    <path id="Path_205" data-name="Path 205" d="M1000.458,549.418a19.843,19.843,0,0,0-.395,9.118c-17.084,1.212-35.36-3.4-35.36-3.4-3.4,3.132-12.372,7.749-12.372,7.749l-4.889-60.6c-3.125-8.171-4.351-50.981-4.351-50.981s.279-2.24.681-5.6a.647.647,0,0,1,.034-.252c1.219-9.376,3.636-26.978,4.821-29.355,1.634-3.268-5.025-11.964-5.025-11.964l3.03-25.841L947,375.17c6.387-2.853,11.283-11.964,11.283-11.964l3.759-6.585h0c4.086-2.622,4.3,23.07,4.3,23.07l-4.085,60.663,13.537-3.738S1002.766,541.669,1000.458,549.418Z" transform="translate(-332.933 -153.655)" opacity="0.1"/>
    <path id="Path_206" data-name="Path 206" d="M1018.374,546c-18.623,9.247-52.472.681-52.472.681-3.4,3.132-12.372,7.749-12.372,7.749l-4.9-60.6c-3.119-8.171-4.344-50.981-4.344-50.981s3.936-31.942,5.57-35.2c.477-.953.245-2.37-.32-3.895a49.284,49.284,0,0,1-2.983-22.8l1.307-11.106.361-3.112c6.394-2.86,11.29-11.971,11.29-11.971l3.4-5.965,6.265-10.99,2.969-5.2.5.456,3.847,3.486,4.086,3.4c5.332,4.494,14.544,12.406,19.3,17.248,4.181,4.263,5.5,20.843,5.883,33.324.252,8.219.1,14.66.1,14.66-4.215,6.939,6.809,62.645,6.809,62.645C1015.249,478.59,1018.374,546,1018.374,546Z" transform="translate(-333.316 -146.05)" fill="#fff"/>
    <path id="Path_207" data-name="Path 207" d="M973.737,364.49s-12.781,24.329-11.3,33.576,5.706,19.713,3.67,22.157a7.524,7.524,0,0,1-5.985,2.989c-2.043.136-7.49,3.943-7.49,4.351s-5.032.409-9.533,2.315a59.356,59.356,0,0,1-11.147,2.989s-12.937-.409-14.143.817-2.445,8.559.136,14.408,5.447,10.214,7.613,11.011,15.906-3.806,27.053-4.9,23.247-9.921,23.247-9.921,13.326-4.766,15.661-12.781-2.853-52.063-2.853-52.063S984.748,358.913,973.737,364.49Z" transform="translate(-324.427 -155.919)" opacity="0.03"/>
    <path id="Path_208" data-name="Path 208" d="M971.346,361.491s-12.781,24.336-11.283,33.576,5.706,19.713,3.663,22.164a7.49,7.49,0,0,1-5.978,2.989c-2.043.136-7.49,3.943-7.49,4.351s-5.032.409-9.533,2.308a59.938,59.938,0,0,1-11.147,2.989s-12.937-.409-14.136.817-2.451,8.566.136,14.408,5.447,10.214,7.613,11.01,15.906-3.806,27.053-4.889,23.247-9.928,23.247-9.928,13.319-4.766,15.627-12.774-2.853-52.07-2.853-52.07S982.357,355.921,971.346,361.491Z" transform="translate(-323.671 -154.963)" opacity="0.03"/>
    <path id="Path_209" data-name="Path 209" d="M973.154,362.694s-12.781,24.336-11.283,33.576,5.706,19.713,3.67,22.157a7.49,7.49,0,0,1-5.985,3c-2.043.136-7.49,3.943-7.49,4.344s-5.025.409-9.533,2.315a59.491,59.491,0,0,1-11.147,2.989s-12.938-.409-14.143.817-2.444,8.566.136,14.408,5.447,10.214,7.613,11.01,15.906-3.806,27.053-4.9,23.247-9.921,23.247-9.921,13.326-4.766,15.661-12.781-2.819-52.063-2.819-52.063S984.157,357.152,973.154,362.694Z" transform="translate(-324.246 -155.349)" fill="#fff"/>
    <path id="Path_210" data-name="Path 210" d="M996.117,458.715s-10.214-2.043-6.659,1.362,3.534,6.387,7.885,6.251S996.117,458.715,996.117,458.715Z" transform="translate(-347.489 -186.097)" opacity="0.1"/>
    <path id="Path_211" data-name="Path 211" d="M1024.375,566.58s-4.617,3.125,4.215,10.33S1024.375,566.58,1024.375,566.58Z" transform="translate(-358.485 -220.708)" opacity="0.1"/>
    <path id="Path_212" data-name="Path 212" d="M1011.907,604.31c0,.409-1.634,14.98,4.48,18.623S1011.907,604.31,1011.907,604.31Z" transform="translate(-354.828 -232.747)" opacity="0.1"/>
    <path id="Path_213" data-name="Path 213" d="M863.982,436.59c-4.93.17-15.579,1.675-10.057,11.977,4.882,9.118,13.087,3.023,17.7-1.6a17.4,17.4,0,0,0-7.647-10.377Z" transform="translate(-303.988 -179.231)" fill="#ffb0b1"/>
    <path id="Path_214" data-name="Path 214" d="M881.39,451Z" transform="translate(-313.246 -183.829)" fill="#ffb0b1"/>
    <path id="Path_215" data-name="Path 215" d="M880.74,451.611l.2-.211Z" transform="translate(-313.039 -183.956)" fill="#ffb0b1"/>
    <path id="Path_216" data-name="Path 216" d="M982.265,340.551c-5.229,3.575-9.615,6.591-10.473,7.218-2.342,1.736-6.809,11.93-9.689,17.132-2.295,4.188-9.751,5.264-12.563,5.529l.361-3.112c6.394-2.86,11.29-11.971,11.29-11.971l12.638-22.157,4.351,3.956Z" transform="translate(-334.991 -146.238)" opacity="0.1"/>
    <path id="Path_217" data-name="Path 217" d="M982.265,339.951c-5.229,3.575-9.615,6.591-10.473,7.225-2.342,1.73-6.809,11.923-9.689,17.125-2.295,4.188-9.751,5.264-12.563,5.529l.361-3.112c6.394-2.86,11.29-11.971,11.29-11.971l12.638-22.157,4.351,3.943S979.814,337.881,982.265,339.951Z" transform="translate(-334.991 -146.047)" fill="#dce7ff"/>
    <path id="Path_218" data-name="Path 218" d="M963.891,308.457a20.2,20.2,0,1,1-17.169-19.964,20.162,20.162,0,0,1,17.169,19.964Z" transform="translate(-326.681 -131.903)" fill="#ffb0b1"/>
    <path id="Path_219" data-name="Path 219" d="M999.823,376.379a17.95,17.95,0,0,1-6.516-7c-1.137-2.247-1.893-4.841-3.834-6.435-1.75-1.43-4.086-1.777-6.264-2.417-7.163-2.118-13.169-8.655-13.394-16.117-.109-3.514.987-7.02.49-10.5a11.629,11.629,0,0,0-2.274-5.413,18.639,18.639,0,0,0-1.968-2.118c-.953-.9-1.954-1.77-2.826-2.724a10.577,10.577,0,0,1-1.43-1.941,9.34,9.34,0,0,1-.783-1.8c-1.362-4.167-.123-9.111-1.621-13.326l-.082-.232c-.565-1.5-1.716-3-3.316-3.112s-2.969,1.212-4.494,1.8c-3.193,1.239-6.639-.872-9.3-3.023s-5.665-4.61-9.049-4.133c-2.24.32-4.011,1.845-6.074,2.635a8.515,8.515,0,0,1-1.437.415,20.189,20.189,0,0,1,38.928,7.524,19.982,19.982,0,0,1-.443,4.215c.034.1.068.184.109.279.79,2.043,1.682,4.14,2.465,5.951l3.847,3.486,4.086,3.4c5.332,4.494,14.544,12.406,19.3,17.248C998.12,347.324,999.428,363.9,999.823,376.379Z" transform="translate(-327.368 -131.903)" opacity="0.1"/>
    <path id="Path_220" data-name="Path 220" d="M924.791,280.822c.974-1.981,1.457-4.2,2.622-6.081,1.709-2.724,4.692-4.467,7.756-5.522,8-2.758,24.908-6.762,29.961,0,.994,1.362,1.818,2.874,3.193,3.813a23.713,23.713,0,0,0,3.466,1.559c3.221,1.512,5.277,4.807,6.373,8.171s1.423,6.973,2.227,10.439a76.767,76.767,0,0,0,4.63,12.849c2.118,4.944,4.365,10.071,8.45,13.564,5.577,4.766,6.809,11.514,11.984,16.744,6.128,6.21,5.931,16.458,2.771,24.595a6.753,6.753,0,0,0-.722,3.323,6.516,6.516,0,0,0,1.8,3.078l3.35,3.779a18.838,18.838,0,0,1-20.584-9.492c-1.137-2.247-1.893-4.835-3.84-6.435-1.743-1.43-4.086-1.77-6.258-2.41-7.163-2.124-13.169-8.668-13.394-16.131-.109-3.507.987-7.013.49-10.486a11.575,11.575,0,0,0-2.281-5.447c-1.873-2.445-4.7-4.086-6.224-6.809-2.581-4.555-.62-10.473-2.479-15.362-.572-1.5-1.716-3-3.316-3.112s-2.969,1.212-4.5,1.8c-3.187,1.239-6.632-.865-9.295-3.023s-5.665-4.61-9.056-4.126c-2.24.313-4,1.839-6.067,2.635-1.525.586-4.617,1.11-5.951-.177C917.083,289.966,923.613,283.246,924.791,280.822Z" transform="translate(-325.311 -124.641)" fill="#591d4b"/>
    <path id="Path_221" data-name="Path 221" d="M993.9,362.5c-1.144-2.247-1.893-4.835-3.84-6.428-1.743-1.43-4.086-1.777-6.265-2.417-7.156-2.118-13.162-8.661-13.394-16.124-.109-3.507.987-7.02.5-10.493a11.644,11.644,0,0,0-2.281-5.413c-1.879-2.444-4.705-4.086-6.224-6.809-2.581-4.549-.62-10.466-2.485-15.362-.565-1.491-1.716-2.989-3.309-3.112s-2.976,1.219-4.5,1.811c-3.187,1.239-6.639-.872-9.295-3.023s-5.672-4.61-9.056-4.133c-2.24.32-4.011,1.845-6.067,2.635-1.525.586-4.623,1.117-5.958-.17-2.805-2.724,3.725-9.431,4.9-11.841.974-1.988,1.457-4.2,2.628-6.081.061-.1.129-.2.2-.306a10.815,10.815,0,0,0-2.24,2.547c-1.164,1.879-1.648,4.086-2.621,6.081-1.178,2.41-7.708,9.138-4.9,11.841,1.362,1.294,4.426.763,5.951.177,2.043-.8,3.827-2.322,6.067-2.635,3.4-.483,6.4,1.975,9.056,4.126s6.128,4.263,9.3,3.023c1.525-.592,2.86-1.927,4.494-1.8s2.724,1.614,3.316,3.112c1.859,4.889-.1,10.806,2.479,15.362,1.525,2.676,4.351,4.351,6.224,6.809a11.575,11.575,0,0,1,2.281,5.447c.5,3.473-.6,6.979-.49,10.486.225,7.49,6.23,14.007,13.394,16.131,2.159.64,4.515.981,6.258,2.41,1.954,1.6,2.724,4.188,3.84,6.435a18.838,18.838,0,0,0,20.584,9.492l-1.58-1.784A19.042,19.042,0,0,1,993.9,362.5Z" transform="translate(-325.242 -127.744)" opacity="0.1"/>
    <path id="Path_222" data-name="Path 222" d="M955.663,354.735c-.892,1.362-3.445,8.334-5.577,14.422-2-.776-3.806-5.727-3.806-5.727l10.636-15.13C958.005,349.8,957.291,352.283,955.663,354.735Z" transform="translate(-333.951 -151.059)" opacity="0.1"/>
    <path id="Path_223" data-name="Path 223" d="M956.263,354.138c-.892,1.362-3.445,8.334-5.577,14.422-1.995-.769-3.806-5.727-3.806-5.727l10.636-15.123C958.605,349.2,957.891,351.693,956.263,354.138Z" transform="translate(-334.143 -150.871)" fill="#dce7ff"/>
    <path id="Path_224" data-name="Path 224" d="M867.038,449.534l-5.9-18.6a1.736,1.736,0,0,1,1.13-2.186h0a1.743,1.743,0,0,1,2.179,1.13l5.9,18.576-.586,3.888Z" transform="translate(-306.759 -176.705)" fill="#be8b87"/>
    <path id="Path_225" data-name="Path 225" d="M861.831,429.317h0a1.743,1.743,0,0,1,2.186,1.13l5.9,18.576-.443,2.914.429.449.586-3.888-5.931-18.576a1.743,1.743,0,0,0-2.179-1.13h0a1.743,1.743,0,0,0-.906.681A2.372,2.372,0,0,1,861.831,429.317Z" transform="translate(-306.89 -176.717)" fill="#fff" opacity="0.1"/>
    <path id="Path_226" data-name="Path 226" d="M822.6,400.189l3.309-1.049-.483,3.187-.1.7-.967-1.008Z" transform="translate(-262.321 -127.359)" fill="#efc8c4"/>
    <path id="Path_227" data-name="Path 227" d="M872.42,461.9a.681.681,0,0,1,.211-.177.3.3,0,0,1,.32,0,.845.845,0,0,1,.116.184.586.586,0,0,0,.422.279l-.1.681Z" transform="translate(-310.384 -187.234)" fill="#727a9c"/>
    <path id="Path_228" data-name="Path 228" d="M861.13,441.7s11.828-.068,9.043,4.964-7.136,5.638-7.136,5.638Z" transform="translate(-306.782 -180.861)" fill="#ffb0b1"/>
    <path id="Path_229" data-name="Path 229" d="M680.187,110.05h-.511a58.242,58.242,0,0,0-48.625,26.617,58.242,58.242,0,0,0-48.625-26.617h-.511a57.878,57.878,0,0,0-57.327,57.844c0,18.936,8.294,45.806,24.466,67.915,30.812,42.129,82,78.987,82,78.987s51.185-36.852,81.99-78.987c16.179-22.11,24.465-48.979,24.465-67.915a57.878,57.878,0,0,0-57.32-57.844Zm-7.306,129a11.474,11.474,0,0,1-10.67-7.368H650.063a3.84,3.84,0,0,1-3.616-2.615l-3.731-11.242-11.807,41.257a3.82,3.82,0,0,1-3.663,2.758h-.238a3.772,3.772,0,0,1-3.541-3.159L611.3,185.5,602.406,228.8a3.793,3.793,0,0,1-3.684,2.88H581.61a3.806,3.806,0,1,1,0-7.606h14.115l12.6-58.226a3.82,3.82,0,0,1,7.49.313l12.427,74.656,10.582-36.913a3.745,3.745,0,0,1,3.561-2.724h.075a3.8,3.8,0,0,1,3.609,2.615l6.748,20.3h9.247a11.412,11.412,0,1,1,10.84,14.98Z" transform="translate(-199.399 -75.039)" fill="#1ca680"/>
  </g>
</svg>
